<svg version="1.1" xmlns="http://www.w3.org/2000/svg" xmlns:xlink="http://www.w3.org/1999/xlink" width="371.5" height="279.89999" viewBox="0,0,371.5,279.89999"><g transform="translate(-55,-40.67218)"><g data-paper-data="{&quot;isPaintingLayer&quot;:true}" fill-rule="nonzero" stroke-dasharray="" stroke-dashoffset="0" style="mix-blend-mode: normal"><g stroke="none" stroke-width="1" stroke-linecap="butt" stroke-linejoin="miter" stroke-miterlimit="10"><path d="M80.69,248.25392l-0.71429,0.42857c-0.2,0 -4.51429,1.57143 -4.71429,1.67143c-0.77464,-1.40031 -1.69129,0.34867 -2.49138,0.33813c-1.6416,-0.02163 -3.74646,0.7429 -7.63741,1.36918c-0.57773,0.09299 -1.55669,0.36831 -2.22835,0.54984c0.37567,-0.65743 -0.61172,-3.99186 -0.40501,-5.03236c0.53303,-2.68304 2.71759,-5.90418 5.18723,-8.42656c2.69118,-2.74865 9.07388,-3.72305 12.46064,-4.42679c10,-1.9 20.52857,-1.42857 30.52857,1.17143c-0.7,1.8 -1.28571,4.17143 -1.28571,5.97143c0,1.4 0.3,3.5 0.9,6.5c-9.7,-1.6 -19.6,-1.41429 -29.6,-0.11429z" fill="#8c0003"></path><path d="M64.69,245.16821c0.1,-0.4 0.3,-0.8 0.5,-1.2c7.4,-1.9 12.4,-0.6 15,4.1c-5.4,0.7 -10.9,1.8 -16.4,3.3c-0.05352,-1.231 -0.70675,-2.40471 -0.5311,-3.50579c0.15253,-0.95618 1.10575,-1.8576 1.4311,-2.69421z" fill="#f47171"></path><path d="M112.49,235.3682c-0.1,0.4 -0.3,0.7 -0.7,0.9c-0.3,0.3 -0.7,0.3 -1.1,0.2c-0.1,0 -0.1,0 -0.2,0c-10.2,-2.7 -20.2,-3.1 -30.3,-1.1c-7.7,1.6 -12.7,4.4 -15,8.6c-0.2,0.4 -0.3,0.8 -0.5,1.2c-0.8,1.8 -1.1,3.9 -0.9,6.2c5.6,-1.5 11,-2.6 16.4,-3.3c0.2,-0.1 0.3,-0.1 0.5,-0.1v0c10,-1.3 19.9,-1.2 29.7,0.3c0.9,0.2 1.3,0.6 1.2,1.3c-0.2,0.7 -0.8,0.9 -1.9,0.8c-8.7,-1 -18,-0.9 -27.8,0.1c-6.6,0.7 -13.4,2.2 -20.5,4.6c-1,-4.1 -0.9,-7.8 0.5,-11.1c2.4,-5.8 8.3,-9.7 17.8,-11.5c10.5,-2.1 21.2,-1.7 31.8,1.2c0.4,0.1 0.7,0.3 0.9,0.7c0.2,0.4 0.3,0.7 0.1,1z" fill="#000000"></path></g><g stroke="none" stroke-width="1" stroke-linecap="butt" stroke-linejoin="miter" stroke-miterlimit="10"><path d="M78.53743,277.53395l-1.35715,0.35714c-0.2,0 -1.72857,-0.78572 -1.92857,-0.78572c-2.7,-4.9 -5.07143,-5.91428 -12.87143,-3.71428c0.5,-2.3 2.3,-5.32857 4.4,-7.32857c2.9,-2.7 6.9,-4.6 12,-5.7c4.50529,-0.86465 8.98058,-1.48798 13.54987,-1.41312c5.47133,0.08963 11.04645,1.08734 16.55014,2.61312c-0.7,2 -1,4.3 -1,6.9c0,2.5 0.3,5.4 0.9,8.6c-9.4,-1.7 -19.94285,-0.72857 -30.24285,0.47143z" fill="#8c0003"></path><path d="M62.78028,272.56253c7.8,-2.3 13.1,-0.9 15.8,4c-5.4,0.7 -10.9,1.8 -16.3,3.3c0,-1.9 0.1,-4.1 0.4,-6.6c0.1,-0.2 0.2,-0.5 0.1,-0.7z" fill="#f47171"></path><path d="M111.08028,260.46253c-0.1,0.4 -0.3,0.7 -0.7,0.9c-0.3,0.3 -0.7,0.3 -1.1,0.2c-0.1,0 -0.1,0 -0.2,0c-10.3,-2.7 -20.4,-3.1 -30.3,-1.1c-5.1,1.1 -9.1,3 -12,5.7c-2.1,1.9 -3.4,4.1 -3.9,6.4c0,0.2 0,0.5 -0.1,0.7c-0.4,2.4 -0.5,4.6 -0.4,6.6c5.4,-1.5 10.9,-2.6 16.3,-3.3c0.2,0 0.3,0 0.5,0v0c10.3,-1.3 20.2,-1.2 29.6,0.4c0.8,0.2 1.1,0.5 0.9,1.1c-0.3,0.6 -1.1,0.8 -2.5,0.6c-7.9,-1 -16.6,-0.9 -26,0.2c-6.3,0.7 -13.4,2.3 -21.4,4.9c-0.4,-4 -0.4,-7.6 0,-10.9c0.5,-3.2 2.1,-6.2 4.9,-8.9c3.3,-3.2 7.8,-5.3 13.5,-6.5c10.4,-2.1 21,-1.7 31.8,1.2c0.4,0.1 0.7,0.3 0.9,0.7c0.2,0.4 0.3,0.7 0.2,1.1z" fill="#000000"></path></g><g stroke="none" stroke-width="1" stroke-linecap="butt" stroke-linejoin="miter" stroke-miterlimit="10"><path d="M79.94,313.22783c-0.4,0.1 -1.8,0 -2.2,0l-1.8,-0.2c-0.2,0 -1.9,0.8 -2.1,0.8c-1.4,-2.5 -5.2,-2.9 -7.9,-4c-3.1,-1.3 -5.9,-3 -9.7,-2c1.6,-9.6 9.2,-17.7 18.8,-19.7c9.8,-2 19.8,-1 30.1,1.8c-1.3,3.3 -2,7.1 -2,11.4c0,4.4 0.5,8.1 1.3,11.1c-9.2,-1.5 -15,-0.3 -24.5,0.8z" fill="#8c0003"></path><path d="M107.24,288.82783c-0.1,0.4 -0.3,0.7 -0.7,0.9c-0.3,0.3 -0.7,0.3 -1.1,0.2c-0.1,0 -0.1,0 -0.2,0c-10.4,-2.8 -20.4,-3.2 -30.2,-1.2c-9.6,2.1 -15.2,7.9 -16.9,17.5c0,0.2 -0.1,0.5 -0.1,0.7c-0.3,2.2 -0.2,5 0.1,8.4c5.5,-1.5 11,-2.6 16.4,-3.3c0.2,0 0.3,0 0.5,0v0c0.4,-0.1 0.8,-0.1 1.2,-0.2c9.6,-1.1 19,-0.9 28.3,0.6c0.2,0 0.4,0.2 0.5,0.4c0.1,0.3 0,0.6 -0.4,0.8c-0.3,0.1 -2.2,0.1 -5.8,0c-5.5,-0.2 -12,0 -19.7,0.8c-8.1,0.7 -15.9,2.3 -23.4,4.9l-0.2,-1.7c-0.6,-4.5 -0.7,-8.2 -0.3,-11c1.6,-11.5 8,-18.4 19.2,-20.8c10.3,-2.1 20.9,-1.7 31.8,1.2c0.4,0.1 0.7,0.3 0.9,0.7c0.2,0.4 0.3,0.7 0.1,1.1z" fill="#000000"></path><path d="M58.14,315.42783c-0.3,-3.4 -0.4,-6.2 -0.1,-8.4c0,-0.2 0.1,-0.5 0.1,-0.7c3.9,-0.9 7.3,-0.8 10.3,0.4c2.7,1.1 4.7,2.9 6.1,5.4c-5.4,0.7 -10.8,1.8 -16.4,3.3z" fill="#f47171"></path></g><g stroke-linejoin="miter"><g stroke="none" stroke-linecap="butt" stroke-miterlimit="10"><path d="M66.24,232.54521c-0.4,-3.2 -0.2,-6.1 0.5,-8.8c3.2,-2 6.66667,-6.86667 9.06667,-6.16667c2.4,0.6 7,5.5 7.9,8.5c-6.8,2.2 -15.06667,5.16667 -17.46667,6.46667z" fill="#f47171" stroke-width="0"></path><path d="M102.44,225.14521c-7.3,-0.4 -14.7,0.4 -22.3,2.2c-0.9,-3 -2.5,-4.9 -4.9,-5.5c-2.4,-0.8 -5.2,-0.1 -8.4,2c1.5,-8.3 6.6,-13.6 15.4,-15.6c5.7,-1.4 11.7,-1.5 18.3,-0.2c-0.9,2.8 -1.2,5.7 -0.9,8.8c0.1,1.6 1,4.4 2.8,8.3z" fill="#8c0003" stroke-width="1"></path></g><path d="M66.84,223.84521c1.5,-8.3 6.6,-13.6 15.4,-15.7c5.6,-1.4 11.7,-1.5 18.3,-0.2M102.34,225.04521c-7.3,-0.4 -14.7,0.4 -22.3,2.2M80.14,227.24521c-6.9,2.2 -11.5,4 -13.8,5.4c-0.4,-3.2 -0.2,-6.2 0.5,-8.8" fill="none" stroke="#000000" stroke-width="3" stroke-linecap="round" stroke-miterlimit="3"></path></g><g stroke="none" stroke-width="1" stroke-linecap="butt" stroke-linejoin="miter" stroke-miterlimit="10"><path d="M116.67484,180.02219c-1.3,1.5 -2,3.8 -2.1,6.7c0,1.6 0.2,5.1 0.7,10.5c-7.6,-1.9 -17.1,-2.3 -28.3,-1.3c-9.7,0.8 -17.2,2.4 -22.4,4.6c-0.5,-1.1 -0.6,-3 -0.5,-5.4c0.1,-2.4 0.4,-4.3 1,-5.7c0.3,-0.8 0.7,-1.5 1.1,-2.2v0c2.8,-4.6 8.3,-7.7 16.7,-9.4c5.3,-1 11.4,-1.3 18.4,-0.9c7.1,0.4 12.2,1.4 15.4,3.1M112.17484,181.52219c-9.6,-2.4 -19.2,-2.6 -28.7,-0.7c-6.1,1.2 -10.5,3.2 -13.2,6.1l41,-1.6c0.1,-1.3 0.4,-2.6 0.9,-3.8M111.97484,193.62219c-0.6,-2.9 -0.8,-5 -0.8,-6.3l-42.5,1.6c-0.3,0.6 -0.6,1.1 -0.8,1.6c-0.8,1.8 -1.1,3.9 -0.9,6.2c5.8,-1.6 11.4,-2.7 16.9,-3.4v0c9.6,-1.2 18.9,-1.2 28.1,0.3z" fill="#000000"></path><path d="M83.87484,193.32219c-5.5,0.7 -11.1,1.8 -17,3.3c-0.1,-2.3 0.2,-4.4 0.9,-6.2c0.3,-0.6 0.5,-1.1 0.8,-1.6l42.5,-1.6c0,1.4 0.3,3.5 0.8,6.3c-9.1,-1.4 -18.4,-1.4 -28,-0.2v0M70.27484,186.92219c2.7,-2.9 7.1,-5 13.2,-6.2c9.5,-1.8 19.1,-1.6 28.7,0.8c-0.4,1.3 -0.7,2.5 -0.9,3.8z" fill="#ffffff"></path></g><g stroke="none" stroke-width="1" stroke-linecap="butt" stroke-linejoin="miter" stroke-miterlimit="10"><path d="M168.2021,228.18214v0c2.6,1.5 4.7,3.4 6.4,5.6v0c0.7,1 1.4,2.1 1.9,3.3c1.1,2.5 1.7,5.1 2.1,7.9c0.5,6.8 -2.3,14.6 -8.4,23.1l-0.9,1.4l-1.3,-1.1c-3.8,-3.4 -9.6,-4.8 -17.3,-4.4v0c-0.9,0.1 -1.8,0.2 -2.7,0.3c-6,0.7 -11.3,2.7 -15.8,5.9c-1,0.6 -1.9,1.3 -2.8,2.1l-1.9,1.6l-0.6,-2.4c-1.4,-5 -2.1,-9.6 -2.1,-14v0c-0.1,-3.6 0.3,-6.9 1.1,-10c1.2,-4.5 3.2,-8.5 6.1,-12v-0.1v0h0.1c3,-3.6 6.8,-6.5 11.3,-8.4c4.2,-1.8 8.4,-2.6 12.7,-2.4c4.5,0.2 8.5,1.4 12.1,3.6M155.6021,226.68214c-4,-0.2 -8,0.5 -11.8,2.1c-3.9,1.7 -7.4,4.9 -10.7,9.5c-1.5,2.2 -2.8,5 -3.9,8.4l46.1,-2.7c-0.2,-2 -0.8,-3.9 -1.6,-5.7c-0.4,-1 -1,-1.9 -1.6,-2.8v0v0c-1.4,-1.9 -3,-3.4 -4.8,-4.6c-3.7,-2.5 -7.6,-3.9 -11.7,-4.2M150.3021,260.88218c7.9,-0.4 14,0.9 18.2,4c4.7,-6.9 7,-13.2 6.9,-18.9l-46.8,2.8c-0.7,2.7 -1,5.6 -0.9,8.6v0.1c0.1,3.4 0.5,7 1.4,10.9c1,-0.7 2,-1.4 3,-2c4.5,-2.8 9.6,-4.5 15.3,-5.2c1,-0.2 1.9,-0.2 2.9,-0.3z" fill="#000000"></path><path d="M147.4021,261.08218c-5.7,0.8 -10.8,2.5 -15.3,5.3c-1,0.6 -2,1.3 -3,2c-0.9,-3.8 -1.4,-7.5 -1.4,-10.9v-0.1c-0.1,-3 0.2,-5.9 0.9,-8.6l46.8,-2.8c0.1,5.7 -2.2,12 -6.9,18.9c-4.2,-3.2 -10.3,-4.5 -18.2,-4.1v0c-1,0.1 -2,0.2 -2.9,0.3M172.1021,235.48212v0v0c0.6,0.9 1.2,1.8 1.6,2.8c0.8,1.9 1.4,3.7 1.6,5.7l-46.1,2.7c1,-3.4 2.3,-6.2 3.9,-8.4c3.3,-4.6 6.9,-7.8 10.7,-9.5c3.8,-1.7 7.8,-2.4 11.8,-2.1c4.1,0.3 8,1.7 11.7,4.3c1.8,1.1 3.4,2.7 4.8,4.5z" fill="#ffffff"></path></g><g stroke="none" stroke-linecap="butt" stroke-linejoin="miter" stroke-miterlimit="10"><path d="M145.49,308.55213c-2.3,-4.4 -4.3,-2.4 -8.5,-2.7c-3,-0.2 -6.4,-2.9 -10.3,-1.1c0,-7.6 2.9,-16.5 7.2,-21.9l40,-1.7c0.7,9.8 -5.2,20.3 -10.5,28.5c-5,-1.7 -12.9,-2.2 -17.9,-1.1z" fill="#6a0003" stroke-width="0"></path><path d="M177.83643,288.16998c1.7,6.1 -2.27143,15.18571 -8.77143,24.98571c-1.7,-1.5 -3.9,-4.12857 -6.6,-4.92857c5.3,-8.3 7.6,-17.2 6.9,-26.9l3.9,-0.2c1,1 3.57143,3.44286 4.57143,7.04286z" fill="#8c0003" stroke-width="0"></path><path d="M135.99,281.05213c2.5,-2.6 5.5,-4.7 8.9,-6.1c3.8,-1.7 7.7,-2.4 11.5,-2.3c4.1,0.2 7.8,1.3 11,3.2c1.7,1 3.2,2.2 4.4,3.6c-0.4,0.1 -12.3,0.6 -35.8,1.6z" fill="#ffffff" stroke-width="1"></path><path d="M129.19,315.05213l-0.8,-3.8c-0.4,-2.4 -0.7,-5.2 -0.9,-8.5c3.9,-1.8 7.3,-2.5 10.3,-2.3c4.2,0.4 7.4,2.7 9.7,7.1c-6.4,1.4 -12.5,3.9 -18.3,7.5z" fill="#f47171" stroke-width="0"></path><path d="M168.49,274.25216c2.5,1.5 4.5,3.3 6.1,5.6h0.1v0.1c0.7,0.9 1.3,1.9 1.8,3.1c4,8.6 1.9,18.7 -6.4,30.4l-0.6,0.9c-1,-1.1 -2.5,-2.2 -4.5,-3.2c-4,-2.1 -8.5,-3 -13.5,-2.6c-5,0.4 -10.4,2.1 -16.1,5.3c-2.8,1.6 -5.2,3.2 -7.1,4.7l-0.4,-1.5c-1.4,-5 -2.1,-9.6 -2.1,-13.9v0c-0.1,-8.5 2.3,-15.7 7.1,-21.6v0v-0.1v0c3,-3.7 6.8,-6.4 11.2,-8.3c4.1,-1.8 8.3,-2.6 12.5,-2.4c4.4,0.2 8.4,1.4 11.9,3.5M167.49,275.95212c-3.3,-1.9 -6.9,-3 -10.9,-3.2c-3.9,-0.2 -7.8,0.5 -11.6,2.2c-3.4,1.5 -6.4,3.5 -8.9,6.1c23.4,-1 35.4,-1.5 35.8,-1.5c-1.3,-1.4 -2.7,-2.6 -4.4,-3.6M133.99,283.15215c-4.3,5.4 -6.4,11.9 -6.4,19.5c0.2,3.2 0.5,6.1 0.9,8.5l0.8,3.8c5.9,-3.7 12,-6.2 18.4,-7.6c5,-1.1 9.9,-0.8 14.9,0.9c2.6,0.9 4.8,2 6.6,3.5c6.5,-9.7 8.9,-17.5 7.2,-23.6c-1,-3.6 -2,-5.9 -3,-6.9l-3.9,0.2z" fill="#000000" stroke-width="1"></path></g><g stroke="none" stroke-width="1" stroke-linecap="butt" stroke-linejoin="miter" stroke-miterlimit="10"><path d="M113.34,160.02218c-1.5,2.2 -2.2,4.8 -2,7.7c-1.8,-0.5 -4.8,-0.6 -8.8,-0.2c-4.2,0.3 -7.4,1 -9.8,1.9c1.1,1 1.4,1.9 0.7,2.8c-0.2,0.3 -0.8,0.2 -1.8,-0.2c-7,-2.9 -14.2,-4.2 -21.3,-3.7c-3.7,0.2 -6.6,0.8 -8.8,1.6c0.3,-1.5 1.4,-3.1 3.1,-4.9c3.4,-3.5 8.4,-5.9 15,-7.2c5.1,-1 11.5,-1.2 19.1,-0.7c7.4,0.5 12.3,1.4 14.6,2.9M80.24,160.82215c-5.4,1.1 -9.5,2.8 -12.3,5.2c8.4,-0.9 15.5,-0.4 21.1,1.6c5.4,-2.5 11.7,-3.5 19,-3c0.2,-1 0.5,-2 0.9,-3.1c-9.6,-2.4 -19.2,-2.6 -28.7,-0.7z" fill="#000000"></path><path d="M89.04,167.52218c-5.6,-2 -12.6,-2.5 -21.1,-1.6c2.8,-2.4 6.9,-4.1 12.3,-5.2c9.5,-1.8 19.1,-1.6 28.7,0.7c-0.4,1.1 -0.7,2.1 -0.9,3.1c-7.2,-0.4 -13.6,0.6 -19,3z" fill="#ffffff"></path></g><g><path d="M177.46113,180.26511c-16.9,-7.9 -33.4,-6.9 -49.4,3c-3.9,-4.8 -6.1,-10.4 -6.6,-16.8l63.5,-4.1c-0.4,1.6 -0.8,3.1 -1.4,4.8c-1.6,4.8 -3.6,9.1 -6.1,13.1M156.46113,154.46514c2.9,-0.2 5.6,-1.1 8.1,-3.1c0.5,-0.3 2.3,-1.8 5.6,-4.6c2,-1.7 3.8,-2.6 5.3,-2.7c2,-0.2 4.2,0.8 6.7,3c3.5,3.2 4.4,8.2 2.8,15.1l-63.5,4.1c0,-0.4 -0.1,-0.8 -0.1,-1.3c-0.3,-6.9 1.3,-12.4 4.8,-16.4c2.5,-2.8 4.8,-4.1 7.1,-4.1c1.7,0 3.8,1 6.3,2.8c3.9,2.8 6.2,4.4 7.1,4.9c3.2,1.8 6.5,2.5 9.8,2.3z" fill="#ffffff" stroke="none" stroke-width="1" stroke-linecap="butt" stroke-linejoin="miter" stroke-miterlimit="10"></path><path d="M121.46113,166.46514c0,-0.4 -0.1,-0.9 -0.1,-1.3c-0.3,-6.9 1.3,-12.4 4.8,-16.4c2.5,-2.8 4.9,-4.2 7.1,-4.1c1.7,0 3.8,0.9 6.3,2.8c3.9,2.8 6.2,4.4 7.1,4.9c3.2,1.6 6.5,2.3 9.8,2.1c2.9,-0.2 5.6,-1.1 8.1,-2.8c0.5,-0.3 2.4,-1.9 5.6,-4.6c2,-1.7 3.8,-2.6 5.3,-2.7c2,-0.2 4.2,0.8 6.7,3c3.5,3.1 4.4,8.1 2.8,15.1c-0.3,1.5 0.2,0.3 -0.4,1.9c-1.6,4.7 -4.7,11.9 -7.1,15.9c-16.9,-7.8 -33.4,-6.8 -49.4,3c-3.8,-4.8 -6,-10.4 -6.6,-16.8z" fill="none" stroke="#000000" stroke-width="3" stroke-linecap="round" stroke-linejoin="miter" stroke-miterlimit="3"></path><path d="M121.46113,166.46514l63.5,-4" fill="none" stroke="#000000" stroke-width="2.5" stroke-linecap="round" stroke-linejoin="round" stroke-miterlimit="10"></path></g><g stroke-linecap="round"><path d="M159.51384,196.37757c2.25193,-0.07933 6.53209,-2.61306 9.72328,-5.72453c1.7175,-1.92863 3.79172,-4.41305 7.03634,-3.77699c6.69782,-0.25254 9.41015,5.81652 9.76545,12.66868c0.3553,6.85216 -8.31383,22.83003 -8.31383,22.83003c0,0 -4.6214,-2.38944 -9.83294,-4.03161c-3.79399,-1.19549 -8.08681,-1.74684 -10.22581,-1.90684c-14.11096,-1.05552 -28.50455,9.36955 -28.50455,9.36955c0,0 -8.00432,-13.79318 -6.73024,-23.09396c1.27408,-9.30078 6.89033,-15.99565 12.2728,-15.83586c8.35553,1.59447 8.54769,6.72805 15.57193,8.57775c4.5549,1.63627 7.60877,0.98114 9.23758,0.92376z" fill="#8c0000" stroke="none" stroke-width="0" stroke-linejoin="miter" stroke-miterlimit="10"></path><path d="M123.84878,209.32544c0,0 5.19878,-0.21901 10.51275,0.65728c5.31397,0.87629 6.67642,1.67152 7.56654,1.98203c6.85923,2.39276 4.5518,4.69588 4.5518,4.69588c0,0 -5.60007,3.08686 -7.35862,3.86269c-3.14418,1.38714 -9.85049,4.60132 -9.85049,4.60132c0,0 -3.36969,-6.0402 -4.50746,-8.74988c-1.03493,-2.46476 -0.9145,-7.04932 -0.9145,-7.04932z" fill="#f57070" stroke="none" stroke-width="0" stroke-linejoin="miter" stroke-miterlimit="10"></path><path d="M122.63274,202.21672c0,0 1.78471,-7.91953 3.7398,-10.69507c1.60225,-2.27463 7.14428,-4.75651 7.14428,-4.75651c0,0 3.81815,0.75124 5.54344,1.68375c2.96894,1.6047 10.66536,7.07703 10.66536,7.07703l9.11527,1.73878c0,0 4.92413,-1.86129 7.39194,-3.47588c2.6662,-1.74438 8.05614,-6.63118 8.05614,-6.63118l5.14965,0.19491c0,0 3.44654,2.25324 4.56816,3.90042c0.96182,1.4125 1.75616,4.33154 1.75616,4.33154l0.17853,3.56104l-63.30872,3.07117z" fill="#ffffff" stroke="none" stroke-width="0" stroke-linejoin="miter" stroke-miterlimit="10"></path><path d="M122.23524,208.57218c0,-0.4 -0.1,-0.9 -0.1,-1.3c-0.3,-6.9 1.3,-12.4 4.8,-16.4c2.5,-2.8 4.9,-4.2 7.1,-4.1c1.7,0 3.8,0.9 6.3,2.8c3.9,2.8 6.2,4.4 7.1,4.9c3.2,1.6 6.5,2.3 9.8,2.1c2.9,-0.2 5.6,-1.1 8.1,-2.8c0.5,-0.3 2.4,-1.9 5.6,-4.6c2,-1.7 3.8,-2.6 5.3,-2.7c2,-0.2 4.2,0.8 6.7,3c3.5,3.1 4.4,8.1 2.8,15.1c-0.3,1.5 0.2,0.3 -0.4,1.9c-1.6,4.7 -4.7,11.9 -7.1,15.9c-16.9,-7.8 -33.4,-6.8 -49.4,3c-3.8,-4.8 -6,-10.4 -6.6,-16.8z" fill="none" stroke="#000000" stroke-width="3" stroke-linejoin="miter" stroke-miterlimit="3"></path><path d="M122.23524,203.40553l63.5,-4" fill="none" stroke="#000000" stroke-width="2.5" stroke-linejoin="round" stroke-miterlimit="10"></path></g><path d="M241.83028,157.07217c-3.6,0.3 -6.8,1.8 -9.5,4.5c-3.1,3.1 -4.6,6.8 -4.6,11.1c0.1,0.8 0.1,1.1 0,0.9c-1.3,-3.4 -3.8,-5.1 -7.8,-5.4c-4,-0.3 -7.3,1 -10,3.9c0.2,-1.2 0.3,-2.4 0.3,-3.7c0,-5.4 -2,-10.1 -5.8,-13.9c-3.3,-3.2 -7,-5.1 -11.3,-5.6M227.73028,173.57212c0.2,3.9 1.7,7.3 4.6,10.1c2.7,2.7 5.8,4.2 9.5,4.5M193.13028,187.77214c4.3,-0.5 8.1,-2.4 11.3,-5.6c2.9,-3 4.7,-6.3 5.4,-10.2" fill="none" stroke="#000000" stroke-width="3" stroke-linecap="round" stroke-linejoin="round" stroke-miterlimit="10"></path><g stroke-width="3" stroke-miterlimit="10"><path d="M225.24,222.7182c-6.2,-3.9 -12.3,-5.4 -18.3,-4.4l0.4,-6.3l0.1,1.2c0,-0.5 -0.1,-1 -0.1,-1.5c0,-0.3 -0.1,-0.5 -0.1,-0.8c7.2,-4.1 13.4,-3.7 18.6,1.3c-0.6,1.7 -0.9,3.5 -0.9,5.4c0,0.3 0.1,2 0.3,5.1z" fill="#8c0003" stroke="none" stroke-linecap="butt" stroke-linejoin="miter"></path><path d="M239.04,201.91822c-3.6,0.3 -6.8,1.8 -9.5,4.5c-1.7,1.7 -2.9,3.6 -3.7,5.7M190.34,232.71821c4.3,-0.5 8.1,-2.4 11.3,-5.6c3,-2.9 4.7,-5.9 5.3,-8.8c6,-1 12.1,0.5 18.3,4.4c0,1.1 1.5,3.1 4.3,5.9c2.7,2.7 5.8,4.2 9.5,4.5M225.84,212.2182c-0.6,1.7 -0.9,3.5 -0.9,5.4c0,0.3 0.1,2 0.2,5.2M206.94,218.2182l0.4,-6.2l0.1,1.2c0,-0.5 -0.1,-1 -0.1,-1.5c0,-0.3 -0.1,-0.5 -0.1,-0.8M207.24,210.91822c-0.5,-4.4 -2.3,-8.2 -5.6,-11.5c-3.3,-3.2 -7,-5.1 -11.3,-5.6M207.34,212.11817v-0.4c0,-0.3 -0.1,-0.5 -0.1,-0.8zM207.24,210.91822c7.2,-4.1 13.4,-3.7 18.6,1.2" fill="none" stroke="#000000" stroke-linecap="round" stroke-linejoin="round"></path></g><path d="M194.59,249.62217c18.3,-13.3 34.5,-12.6 48.8,2.3" fill="none" stroke="#000000" stroke-width="3" stroke-linecap="round" stroke-linejoin="round" stroke-miterlimit="10"></path><path d="M198.57089,272.62217c1.7,-6.2 4.9,-11.2 9.9,-14.9c4.5,-3.3 9.3,-5 14.6,-5c5.3,0 9.6,1.8 12.7,5.2c3.5,3.8 4.9,9 4.1,15.6" fill="none" stroke="#000000" stroke-width="3" stroke-linecap="round" stroke-linejoin="round" stroke-miterlimit="10"></path><path d="M200.80879,289.47217c0.5,-4.4 2.3,-8.1 5.2,-11.2c2.7,-2.7 5.9,-4.5 9.7,-5.2c3.8,-0.7 7.3,-0.3 10.4,1.3c3.6,1.7 6.1,4.5 7.5,8.3" fill="none" stroke="#000000" stroke-width="3" stroke-linecap="round" stroke-linejoin="round" stroke-miterlimit="10"></path><path d="M227.33945,314.87217l-2.3,-0.8c-3.4,-1.4 -6.6,-2 -9.7,-1.9c-1.3,2.3 -2.1,5.1 -2.3,8.4c-0.6,-2.8 -0.6,-5.5 0,-8.1c-4.4,0.8 -8.7,3.2 -12.6,7.3c-0.3,0.3 -0.7,0.5 -1.1,0.5c-0.1,0 -0.3,0 -0.5,-0.1c-0.5,-0.6 1.4,-2.8 5.7,-6.5c4.4,-3.7 10.7,-4.8 19,-3.3c-0.3,-3.5 -1.2,-5.9 -2.6,-7.3c-1.4,-1.4 -0.9,-1.6 1.3,-0.6c2.3,1.1 4,5.2 5.1,12.4z" fill="#000000" stroke="none" stroke-width="1" stroke-linecap="butt" stroke-linejoin="miter" stroke-miterlimit="10"></path><g stroke-linecap="round" stroke-linejoin="miter"><path d="M199.89,297.72217c7,-7.3 17.6,-9.7 31.9,-7.3c-2.5,1.3 -4.7,4.5 -6.5,9.8" fill="none" stroke="#000000" stroke-width="3" stroke-miterlimit="3"></path><path d="M231.63545,288.92217l4.09091,0.90909l-3.63636,2.18182c0,0 -2.74916,-0.92598 -2.76216,-1.36796c-0.01647,-0.56009 2.30761,-1.72295 2.30761,-1.72295z" fill="#000000" stroke="none" stroke-width="0" stroke-miterlimit="10"></path></g><path d="M370.54,287.4888c16.1,-2.1 33.4,-3.3 51.9,-3.7" fill="none" stroke="#000000" stroke-width="3" stroke-linecap="round" stroke-linejoin="round" stroke-miterlimit="10"></path><path d="M405.04,293.38878c2,1.9 2.9,4.2 2.9,6.9c0,2.7 -1,5 -2.9,6.9c-1.9,1.9 -4.2,2.9 -6.9,2.9c-2.7,0 -5,-1 -6.9,-2.9c-1.9,-1.9 -2.9,-4.2 -2.9,-6.9c0,-2.7 1,-5 2.9,-6.9c1.9,-1.9 4.2,-2.8 6.9,-2.8c2.6,0 5,0.9 6.9,2.8z" fill="#000000" stroke="none" stroke-width="1" stroke-linecap="butt" stroke-linejoin="miter" stroke-miterlimit="10"></path><g stroke-miterlimit="10"><path d="M360.44,288.86004c-1.7,1.4 -4.1,2.3 -7,2.9c-5,0.9 -8.8,0.2 -11.4,-2.3c-2,-1.8 -3.8,-5.3 -5.5,-10.5c-2.7,-7.9 -4.4,-12.8 -5.3,-14.8c-2.7,-6.1 -6.3,-11.2 -10.7,-15.3c2.1,-0.5 4,-0.8 5.7,-0.9c2.1,2 4.7,5.5 7.9,10.5c1.8,2.9 4.1,7.5 7.1,13.7c5.9,12.9 12.3,18.5 19.2,16.7z" fill="#f25e5e" stroke="none" stroke-width="1" stroke-linecap="butt" stroke-linejoin="miter"></path><path d="M335.94,250.76005c3.2,1.8 6.2,6 9,12.5c-2.8,-6.5 -5.8,-10.7 -9,-12.5c-3.3,-1.8 -5.6,-2.8 -6.9,-2.9c4.4,-1.8 9.7,-0.8 15.6,3.1c5.6,3.4 10.4,8.1 14.3,14.1c4.1,6.2 5.8,11.7 5.3,16.5c-0.4,3.1 -1.7,5.5 -4,7.3c-6.8,1.9 -13.1,-3.7 -19.1,-16.6c-2.9,-6.2 -5.3,-10.8 -7.1,-13.7c-3.1,-5.1 -5.7,-8.6 -7.8,-10.6c1,-0.1 2,-0.1 2.8,-0.1c1.3,0.1 3.6,1.1 6.9,2.9z" fill="#f47171" stroke="none" stroke-width="1" stroke-linecap="butt" stroke-linejoin="miter"></path><path d="M329.04,247.86005c1.4,0.1 3.7,1 6.9,2.9c3.2,1.8 6.2,6 9,12.5" fill="none" stroke="#000000" stroke-width="2.5" stroke-linecap="round" stroke-linejoin="round"></path><path d="M329.04,247.86005c4.5,-1.8 9.7,-0.8 15.8,2.9c5.6,3.4 10.3,8.1 14.3,14.1c4.1,6.2 5.8,11.7 5.3,16.5c-0.3,3.1 -1.7,5.5 -4,7.3c-1.8,1.4 -4.1,2.3 -7,2.9c-5,0.9 -8.8,0.2 -11.4,-2.3c-1.9,-1.8 -3.8,-5.3 -5.5,-10.5c-2.6,-7.9 -4.4,-12.9 -5.3,-14.8c-2.7,-6 -6.3,-11.1 -10.7,-15.2" fill="none" stroke="#000000" stroke-width="2.5" stroke-linecap="round" stroke-linejoin="round"></path><path d="M320.54,248.76005c2.1,-0.5 4,-0.8 5.7,-0.9c1,0 2,-0.1 2.8,0" fill="none" stroke="#000000" stroke-width="2.5" stroke-linecap="round" stroke-linejoin="round"></path></g><path d="M425,268.42218c-25,12.5 -43.4,9.3 -55,-9.5" fill="none" stroke="#000000" stroke-width="3" stroke-linecap="round" stroke-linejoin="round" stroke-miterlimit="10"></path><path d="M424.14,244.06913c-1.5,6.3 -5,11.2 -10.4,14.6c-4.8,3.1 -10.2,4.4 -16.2,4.1c-6,-0.4 -10.8,-2.3 -14.4,-5.8c-4,-3.8 -5.6,-8.7 -4.8,-14.7" fill="none" stroke="#000000" stroke-width="3" stroke-linecap="round" stroke-linejoin="round" stroke-miterlimit="10"></path><path d="M424.53945,161.32211c-3.6,0.3 -6.8,1.8 -9.5,4.5c-3.1,3.1 -4.6,6.8 -4.6,11.1c0,0.3 0,0.6 0,0.9c-7,4.8 -13,4.3 -17.8,-1.5c0.2,-1.2 0.3,-2.4 0.3,-3.7c0,-5.4 -2,-10.1 -5.8,-13.9c-3.3,-3.2 -7,-5.1 -11.3,-5.6M410.43945,177.82218c0.2,3.9 1.7,7.3 4.6,10.1c2.7,2.7 5.8,4.2 9.5,4.5M375.83945,192.02218c4.3,-0.5 8.1,-2.4 11.3,-5.6c2.9,-3 4.7,-6.3 5.4,-10.2" fill="none" stroke="#000000" stroke-width="3" stroke-linecap="round" stroke-linejoin="round" stroke-miterlimit="10"></path><g stroke="none" stroke-width="1" stroke-linecap="butt" stroke-linejoin="miter" stroke-miterlimit="10"><path d="M264.43927,228.24716c-0.3,-0.4 -0.225,-0.925 -0.425,-1.425c9.4,-3 14.9,0.2 16.5,9.7c-1.5,-0.3 -2.9,-0.6 -4.3,-1.1v0v0c-5.2,-1.5 -9.375,-3.775 -11.775,-7.175z" fill="#f47171"></path><path d="M280.81427,236.52218c-0.1,0 -0.2,0 -0.4,0c-1.6,-9.4 -7.1,-12.6 -16.5,-9.6c0,-0.1 -0.1,-0.1 -0.1,-0.2v0c-1.4,-2.9 -2.6,-7.8 -1.6,-11.5c8.5,2.3 17.3,4.45 24.5,4.85l1.625,-0.125c7.8,0.4 14.575,0.775 23.775,-0.725c-1.9,2.6 -2.8,5.8 -2.7,9.4c-0.4,0 -0.6,0.1 -0.9,0.3c-4.3,3.5 -9.5,5.9 -15.7,7c-4.7,0.9 -8.6,1 -12,0.6z" fill="#8c0003"></path><path d="M315.21427,217.22217c0,0.4 0,0.8 -0.3,1.1c-0.3,0.3 -0.6,0.5 -1,0.6c-0.6,0.1 -1.2,0.2 -1.8,0.3c-9.2,1.5 -17.7,2 -25.4,1.6v0c-7.1,-0.5 -15,-1.9 -23.4,-4.2c-1.1,3.7 -0.9,7.1 0.6,10v0c0,0.1 0.1,0.1 0.1,0.2c0.2,0.5 0.5,0.9 0.7,1.2c2.5,3.4 6.3,5.8 11.5,7.2h0.1v0c1.4,0.5 2.8,0.9 4.3,1.1c0.1,0 0.3,0 0.4,0c3.2,0.5 7.1,0.4 11.8,-0.5c6.1,-1.1 11.4,-3.5 15.7,-7c0.3,-0.2 0.6,-0.3 0.9,-0.3c0.8,0.2 0.7,0.9 -0.2,2.2c-0.9,1.3 -3,2.9 -6.1,4.6c-3.1,1.7 -6.4,2.9 -9.8,3.5c-5,1 -9.3,1.1 -12.8,0.7c-1.8,-0.2 -3.5,-0.6 -5.1,-1.1c0,-0.1 -0.1,-0.1 -0.1,-0.1c-5.9,-1.6 -10.3,-4.4 -13,-8.3c-0.4,-0.7 -0.8,-1.3 -1.1,-2v0c-2.1,-3.9 -2.3,-8.5 -0.5,-13.6l0.5,-1.4l1.4,0.4c8.8,2.4 16.9,3.9 24.4,4.3v0c7.9,0.5 16.8,-0.1 26.4,-1.9c0.4,0 0.8,0.1 1.1,0.3c0.3,0.3 0.5,0.6 0.7,1.1z" fill="#000000"></path></g><g stroke="none" stroke-width="1" stroke-linecap="butt" stroke-linejoin="miter" stroke-miterlimit="10"><path d="M280.45453,267.27571c-3.56936,-0.54532 -8.09592,-0.60673 -10.82968,-2.18425c-2.49426,-1.4393 -4.92703,-4.3333 -6.55993,-6.88052c-0.18753,-0.29253 0.71201,-0.75992 0.51461,-1.03523c4.18195,-1.33466 8.7912,-2.21823 11.51174,-0.98875c3.39457,1.53409 4.47508,5.87069 5.36326,11.08875z" fill="#f47171"></path><path d="M280.72953,268.65071c-0.1,0 -0.45,-1.875 -0.65,-1.875c-1.6,-9.4 -7.1,-12.6 -16.5,-9.6c-0.1,-0.2 -1.19091,0.24545 -1.29091,0.14545c-0.86908,-1.3603 -2.56886,-3.14456 -2.78116,-4.76186c-0.34954,-2.66285 2.44115,-5.92404 3.87207,-9.28359c8.6,2.4 16.5,3.8 23.7,4.3v0c7.8,0.4 16.3,-0.1 25.6,-1.7c-0.9,1.5 -1.6,3.3 -1.9,5.4c-0.4,2.6 -0.4,5.1 0.2,7.6c-0.2,0.1 -0.4,0.2 -0.6,0.3c-4,3.3 -9,7.6 -17,9.1c-4.4,0.9 -9.15,0.875 -12.65,0.375z" fill="#8c0003"></path><path d="M315.5795,243.87574c0,0.4 0,0.8 -0.3,1.1c-0.3,0.3 -0.6,0.5 -1,0.6c-0.5,0.1 -1.1,0.2 -1.6,0.3c-9.3,1.6 -17.8,2.1 -25.6,1.7v0c-7.2,-0.5 -15.1,-1.9 -23.7,-4.1c-2.4,5.4 -2.4,9.9 0,13.5c0.1,0.2 0.1,0.3 0.2,0.4c3.7,5.3 9.3,8.5 16.5,9.6c0.1,0 0.3,0 0.4,0c3.4,0.5 7.3,0.4 11.8,-0.5c7.9,-1.5 13.9,-3.9 17.9,-7.1c0.2,-0.1 0.4,-0.2 0.6,-0.3c1.3,0.5 0.4,1.9 -2.8,4.1c-3.5,2.4 -8,4.2 -13.4,5.5c-5,1.2 -9.8,1.6 -14.4,1.2c-8.2,-0.7 -14.7,-4.4 -19.3,-11.3c-3.3,-4.7 -3.2,-10.5 0.3,-17.6l0.5,-1.2l1.3,0.4c8.8,2.4 16.9,3.9 24.4,4.3v0c7.9,0.5 16.8,-0.1 26.4,-1.9c0.4,0 0.8,0.1 1.1,0.3c0.3,0.3 0.5,0.6 0.7,1z" fill="#000000"></path></g><g stroke="none" stroke-width="1" stroke-linecap="butt" stroke-linejoin="miter" stroke-miterlimit="10"><path d="M264.84,291.15913l0.5,-0.625c-0.3,-0.4 -0.5,-0.9 -0.8,-1.4c9.3,-3 14.9,0.2 16.6,9.5c0,0 -1.30246,0.92558 -2.02775,0.76074c-0.74104,-0.16842 -2.24725,0.23926 -2.24725,0.23926c-1.96863,-0.53001 -5.23659,-2.20335 -6.80391,-3.01459c-2.57265,-1.33159 -3.72969,-3.40973 -5.22109,-5.46041z" fill="#f47171"></path><path d="M281.665,299.60913l-0.275,0.625l-0.35,-1.6c-1.6,-9.3 -7.2,-12.5 -16.5,-9.5c0,-0.1 -0.1,-0.1 -0.1,-0.2l-0.1,-0.1c-0.39983,-0.68936 -0.42989,4.05241 -0.88829,2.48523c-0.38336,-1.31062 -1.2166,-8.95005 -1.38167,-9.57762c-1.06916,-4.06491 0.10416,-5.47854 2.26996,-10.40761c8.6,2.4 16.5,3.175 23.7,3.575h1c7.6,0.4 14.8,0.525 23.8,-0.875c-1.8,2.1 -2.8,5 -3,8.7c-0.2,4.1 0.85,8.575 2.75,11.475c-5,3.2 -11.05,4.6 -17.55,5.3c-3.97456,0.44162 -7.4491,0.49764 -11.42366,-0.13409c-0.52544,-0.08352 -1.4259,0.3275 -1.95134,0.23409z" fill="#8c0003"></path><path d="M316.53999,272.03413c0,0.4 0,0.8 -0.3,1.1c-0.3,0.3 -0.6,0.5 -1,0.6c-0.8,0.2 -1.6,0.3 -2.4,0.4c-9,1.4 -17.2,1.9 -24.8,1.5v0c-7.2,-0.5 -15.1,-1.9 -23.7,-4.2c-2.9,6.7 -2.9,12.5 0,17.5l0.1,0.1c0,0.1 0.1,0.1 0.1,0.2c0.3,0.6 0.5,1 0.8,1.4v0c2.4,3.3 6.2,5.7 11.4,7.1l4.4,1l0.6,0.1h-0.1c4.4,0.8 8.9,0.9 13.4,0.4c6.4,-0.8 12.2,-2.7 17.3,-5.8c0.9,0 1.2,0.4 0.8,1.1c-0.5,0.7 -1.4,1.5 -2.8,2.4c-3.8,2.4 -8.4,4 -13.9,4.8c-5.4,0.9 -10.5,0.9 -15.5,0.1h-0.1l-4.9,-1.1h-0.1v0c-6,-1.7 -10.4,-4.5 -13.1,-8.4h0.1c-0.4,-0.6 -0.8,-1.2 -1.2,-2l0.1,0.1c-3.7,-6.1 -3.6,-13.2 0.4,-21.4l0.5,-1.2l1.3,0.4c8.8,2.4 16.9,3.9 24.4,4.3v0c7.9,0.5 16.8,-0.1 26.4,-1.9c0.4,0 0.8,0.1 1.1,0.3c0.3,0.3 0.5,0.6 0.7,1.1z" fill="#000000"></path></g><g stroke-linejoin="miter"><path d="M369.82393,213.22212c-2.9,-0.1 -5.9,-0.3 -8.9,-0.4c-14.6,-0.6 -29.3,-1.2 -44,-1.8c1,-4.4 2.8,-9 5.4,-14.1c5.2,5.6 12.8,8.7 22.9,9.4c9.5,0.6 17.3,-1 23.4,-4.9c1.1,4.1 1.5,8.1 1.2,11.8z" fill="#ffffff" stroke="none" stroke-width="1" stroke-linecap="butt" stroke-miterlimit="10"></path><path d="M317.02393,210.92215c14.7,0.6 29.3,1.2 44,1.8c-1.24379,3.49817 -0.90646,9.07332 -3.22038,11.73134c-3.63929,4.18045 -10.70533,4.82907 -16.87961,6.96867c-0.55365,-0.67794 -2.01422,1.08296 -2.63184,0.53269c-0.75502,-0.67269 -0.68296,-3.62498 -1.53407,-4.10688c-1.88069,-1.06484 -3.87161,0.96109 -6.2256,0.8278c-3.42186,-0.19376 -7.47177,-2.02829 -11.90849,-0.25361c-2.6,-4.9 -3.1,-10.7 -1.6,-17.5z" fill="#6a0003" stroke="none" stroke-width="1" stroke-linecap="butt" stroke-miterlimit="10"></path><path d="M362.72393,230.32218c-4.8,5.2 -10.7,8.2 -17.6,9.2c-0.59589,-1.78767 -2.02982,-2.64927 -2.80179,-4.08479c-0.65306,-1.21441 -0.61913,-3.05282 -1.39821,-4.01521c10.1,-3.5 16.9,-9.7 20.1,-18.7c3,0.1 6,0.3 8.9,0.4c-0.3,6.7 -2.7,12.4 -7.2,17.2z" fill="#8c0003" stroke="none" stroke-width="1" stroke-linecap="butt" stroke-miterlimit="10"></path><path d="M345.24893,239.89718c-1.9,0.2 -3.9,0.675 -5.9,0.675c-9.7,-0.2 -16.625,-4.55 -20.525,-11.55c-0.1,-0.2 -0.2,-0.4 -0.3,-0.6c7.53729,-3.01492 13.8475,-3.8143 18.47345,-1.14814c1.51147,0.87113 3.36982,2.29551 4.57655,3.77314c1.8,2.1 2.575,5.55 3.675,8.85z" fill="#f47171" stroke="none" stroke-width="1" stroke-linecap="butt" stroke-miterlimit="10"></path><path d="M317.02393,210.92215c14.7,0.6 29.4,1.2 44,1.8c3,0.1 5.9,0.3 8.9,0.4M317.02393,210.92215c1,-4.3 2.8,-9 5.4,-14.1c5.1,5.7 12.7,8.8 22.8,9.5c9.5,0.6 17.3,-1 23.4,-4.9c1.1,4.2 1.5,8.1 1.3,11.8c-0.3,6.6 -2.7,12.3 -7.3,17.1c-4.8,5.1 -10.7,8.2 -17.6,9.2c-1.9,0.3 -3.8,0.4 -5.9,0.3c-9.6,-0.2 -16.4,-3.8 -20.4,-10.8c-0.1,-0.2 -0.2,-0.4 -0.3,-0.6c-2.4,-4.9 -2.9,-10.7 -1.4,-17.5z" fill="none" stroke="#000000" stroke-width="2.5" stroke-linecap="round" stroke-miterlimit="12"></path></g><g stroke-linejoin="miter"><path d="M318.75459,175.02219h53c-1.2,4.2 -3.3,8 -6.4,11.4c-4.8,5.2 -10.7,8.2 -17.6,9.2c-1.9,0.2 -3.9,0.3 -5.9,0.3c-9.7,-0.2 -16.5,-3.8 -20.4,-10.8c-0.1,-0.2 -0.2,-0.4 -0.3,-0.6c-1.5,-2.9 -2.3,-6 -2.4,-9.5M372.45459,169.32218c-0.1,2 -0.4,3.9 -0.9,5.8h-52.8c-0.1,-2.6 0.2,-5.2 0.8,-8.1c1,-4.4 2.8,-9 5.4,-14.1c5.2,5.6 12.8,8.7 22.9,9.4c9.5,0.6 17.3,-1 23.4,-4.9c1.1,4.1 1.5,8.1 1.2,11.9z" fill="#ffffff" stroke="none" stroke-width="1" stroke-linecap="butt" stroke-miterlimit="10"></path><path d="M318.75459,175.02219c-0.1,-2.5 0.2,-5.2 0.8,-8c1,-4.3 2.8,-9 5.4,-14.1c5.2,5.6 12.8,8.7 22.9,9.4c9.5,0.6 17.3,-1 23.4,-4.9c1.1,4.2 1.5,8.1 1.3,11.8c-0.1,2 -0.4,4 -0.9,5.8c-1.1,4.2 -3.2,8 -6.4,11.4c-4.8,5.1 -10.7,8.2 -17.6,9.2c-1.9,0.3 -3.8,0.4 -5.9,0.3c-9.6,-0.2 -16.4,-3.8 -20.4,-10.8c-0.1,-0.2 -0.2,-0.4 -0.3,-0.6c-1.3,-2.9 -2.1,-6.1 -2.3,-9.5z" fill="none" stroke="#000000" stroke-width="3" stroke-linecap="round" stroke-miterlimit="12"></path><path d="M371.65459,175.02219h-52.9" fill="none" stroke="#000000" stroke-width="2.5" stroke-linecap="round" stroke-miterlimit="3"></path></g><g stroke="none" stroke-width="1" stroke-linecap="butt" stroke-linejoin="miter" stroke-miterlimit="10"><path d="M258.93564,182.92213c8.8,2.4 16.9,3.9 24.4,4.3v0c9.3,0.5 19.6,-0.4 30.9,-2.5c-4.1,3.5 -6.4,7.1 -6.9,10.6c-0.1,1.4 -0.1,2.8 0,4.1v0.8l-0.7,0.8c-4.7,3.8 -10.4,6.4 -17.1,7.6v0c-6.1,1.1 -12.1,0.9 -17.9,-0.6c-5.9,-1.6 -10.3,-4.4 -13.1,-8.4v0c-0.4,-0.7 -0.8,-1.3 -1.1,-2v0c-0.3,-0.7 -0.6,-1.3 -0.8,-2l0.1,0.1c-1.3,-3.5 -1.2,-7.5 0.3,-11.8l0.5,-1.4l1.4,0.4M283.03564,190.32218c-7.1,-0.5 -15,-1.9 -23.5,-4.1c-0.8,2.9 -0.9,5.6 -0.1,8.1c15,2.1 30,2.1 45,0c0.4,-2 1,-3.7 2,-5.3c-8.5,1.3 -16.2,1.7 -23.4,1.3v0M272.63564,204.82218c5.4,1.4 10.9,1.6 16.6,0.6v0c5.8,-1.1 10.8,-3.2 15,-6.5c0,-0.8 0,-1.7 0,-2.5c-14.6,1.9 -29.2,1.9 -43.9,0c0.3,0.4 0.5,0.9 0.8,1.3v0c2.4,3.4 6.2,5.8 11.5,7.1z" fill="#000000"></path><path d="M261.13564,197.62218c-0.3,-0.3 -0.5,-0.8 -0.8,-1.2c14.7,1.9 29.3,1.9 43.8,0c0,0.8 0,1.6 0,2.5c-4.1,3.3 -9.2,5.4 -15,6.5v0c-5.7,1 -11.2,0.8 -16.6,-0.6c-5.2,-1.3 -9,-3.7 -11.4,-7.2v0M306.43564,189.02218c-1,1.6 -1.7,3.4 -2,5.3c-14.9,2.1 -30,2.1 -45,0c-0.8,-2.4 -0.7,-5.1 0.1,-8.1c8.5,2.3 16.3,3.7 23.5,4.1v0c7.2,0.4 15,-0.1 23.4,-1.3z" fill="#ffffff"></path></g><g stroke-width="3" stroke-miterlimit="10"><path d="M410.24,226.36913c-7.7,3 -13.8,1.5 -18.3,-4.4l0.4,-6.3l0.1,1.2c0,-0.5 -0.1,-1 -0.1,-1.5c0,-0.3 -0.1,-0.5 -0.1,-0.8c6.2,3.8 12.4,4.3 18.6,1.3c-0.6,1.7 -0.9,3.5 -0.9,5.4c0,0.3 0.1,2 0.3,5.1z" fill="#8c0003" stroke="none" stroke-linecap="butt" stroke-linejoin="miter"></path><path d="M424.04,205.56907c-3.6,0.3 -6.8,1.8 -9.5,4.5c-1.7,1.7 -2.9,3.6 -3.7,5.7M375.34,236.36913c4.3,-0.5 8.1,-2.4 11.3,-5.6c3,-2.9 4.7,-5.9 5.3,-8.8c4.5,5.9 10.6,7.4 18.3,4.4c0,1.1 1.5,3.1 4.3,5.9c2.7,2.7 5.8,4.2 9.5,4.5M410.84,215.86913c-0.6,1.7 -0.9,3.5 -0.9,5.4c0,0.3 0.1,2 0.2,5.2M391.94,221.86913l0.4,-6.2l0.1,1.2c0,-0.5 -0.1,-1 -0.1,-1.5c0,-0.3 -0.1,-0.5 -0.1,-0.8M375.34,197.46913c4.3,0.5 8.1,2.4 11.3,5.6c3.2,3.2 5.1,7.1 5.6,11.5M392.24,214.56913l0.1,1.2v-0.4c0,-0.3 -0.1,-0.5 -0.1,-0.8zM392.24,214.56913c6.3,3.8 12.4,4.2 18.6,1.2" fill="none" stroke="#000000" stroke-linecap="round" stroke-linejoin="round"></path></g><g stroke="none" stroke-width="1" stroke-linecap="butt" stroke-linejoin="miter" stroke-miterlimit="10"><path d="M252.83945,160.42213l1.5,0.5c8.8,2.4 16.9,3.9 24.3,4.3v0c9,0.6 19.3,-0.3 30.7,-2.4c-4.7,3.8 -7.4,9.2 -8.1,16.2c-2,-0.9 -5.1,-1.5 -9.2,-1.9c-5.1,-0.5 -9,-0.2 -11.8,1c2.1,2.5 2.6,4.1 1.7,4.6c-0.3,0.2 -0.6,0.1 -1.1,-0.3l-4.6,-3.7c-6.4,-3.9 -13.6,-4.7 -21.8,-2.4l-1.2,0.3l-0.5,-1.1c-0.3,-0.7 -0.6,-1.3 -0.8,-2l0.1,0.1c-1.3,-3.5 -1.2,-7.5 0.3,-11.8l0.5,-1.4M254.93945,164.12218c-0.9,3.1 -0.9,5.9 0,8.5v0c0,0.2 0.1,0.3 0.1,0.4c8.3,-2.1 15.8,-1.1 22.5,2.9c7,-2.7 14.2,-3 21.5,-0.8c0.7,-3.3 1.7,-6 2.8,-8.1c-8.5,1.3 -16.3,1.7 -23.5,1.3v0c-7.1,-0.5 -15,-1.9 -23.4,-4.2z" fill="#000000"></path><path d="M301.83943,167.12218c-1.2,2.1 -2.1,4.8 -2.8,8.1c-7.4,-2.1 -14.6,-1.9 -21.6,0.8c-6.7,-4.1 -14.2,-5 -22.5,-2.9c0,-0.2 -0.1,-0.3 -0.1,-0.4v0c-0.8,-2.6 -0.9,-5.4 0,-8.5c8.5,2.3 16.3,3.7 23.5,4.1v0c7.2,0.4 15.1,-0.1 23.5,-1.2z" fill="#ffffff"></path></g><path d="M187.84,127.92212c-1.3,0 -2.6,0 -3.9,0c1.9,-2.3 3.8,-5.3 5.6,-9c2.1,-4.4 3.1,-7.8 2.9,-10.1c-0.3,-3.7 -1.6,-6.7 -3.8,-8.9c-1.3,-1.3 -2.7,-2.6 -4.3,-4.1l0.5,-1c1.8,1 3.5,2.2 5.1,3.7c2.5,2.5 4.1,5.6 4.8,9.4c0.8,4.6 0,8.7 -2.2,12.5c1,0 1.9,0 2.9,0.2c4.1,0.8 6.6,3.3 7.4,7.4z" fill="#000000" stroke="none" stroke-width="1" stroke-linecap="butt" stroke-linejoin="miter" stroke-miterlimit="10"></path><path d="M167.965,90.72217l0.5,-0.9c1.8,0.8 3.5,1.9 5.1,3.2c2.5,2.2 4.1,4.9 4.8,8.2c0.4,1.8 -0.1,4.4 -1.3,7.6c-1,2.6 -2.2,4.9 -3.6,7c3.6,1.3 6.1,3.4 7.5,6.5c1.4,3.1 0.9,5.3 -1.5,6.5c-2.2,1.1 -4.7,0 -7.6,-3.5c-2,-2.2 -3.4,-4.5 -4.3,-6.6c1.9,-2.1 3.8,-4.7 5.6,-7.9c2.1,-3.8 3.1,-6.7 2.9,-8.8c-0.3,-3.2 -1.6,-5.8 -3.8,-7.8c-1.3,-1.1 -2.7,-2.3 -4.3,-3.5z" fill="#000000" stroke="none" stroke-width="1" stroke-linecap="butt" stroke-linejoin="miter" stroke-miterlimit="10"></path><path d="M140.39,111.49716c1.2,0.5 2.1,1.6 2.4,3.4c0.3,1.7 0.1,3.6 -0.7,5.6c-2,5.1 -5.7,7.2 -11.1,6.4c0.8,-3.3 1.3,-7.1 1.6,-11.3c0.4,-6.6 -0.3,-11 -2.2,-13.2c-0.5,-0.5 -1.9,-1.8 -4.3,-3.8l0.5,-0.9c1.8,0.9 3.5,2.1 5.1,3.5c1.3,1.2 2.3,3.1 2.9,5.6c0.7,2.9 0.7,5.8 0,8.9c0.7,-1.8 1.2,-3 1.6,-3.4c1,-1.2 2.4,-1.4 4.2,-0.8z" fill="#000000" stroke="none" stroke-width="1" stroke-linecap="butt" stroke-linejoin="miter" stroke-miterlimit="10"></path><path d="M155.715,118.49716c1.6,-2.1 3.6,-3 6.1,-2.7c2.2,0.3 3.7,1.2 4.4,2.7l-8.4,7.1l-0.1,0.1v-0.1h-9c-1.3,0 -2.6,0 -3.9,0c1.9,-2.3 3.8,-5.3 5.6,-9c2.1,-4.4 3.1,-7.8 2.9,-10.1c-0.3,-3.7 -1.6,-6.7 -3.8,-8.9c-1.3,-1.3 -2.7,-2.6 -4.3,-4.1l0.5,-1c1.8,1 3.5,2.2 5.1,3.7c2.5,2.5 4.1,5.6 4.8,9.3c0.8,4.6 0,8.7 -2.2,12.5c0.6,0 1.3,0.2 2.3,0.5z" fill="#000000" stroke="none" stroke-width="1" stroke-linecap="butt" stroke-linejoin="miter" stroke-miterlimit="10"></path><path d="M88.39,124.92212l0.9,-32h2l1.1,25.6c2.4,-1.1 4.9,-1.4 7.5,-0.9c4.1,0.8 6.6,3.3 7.4,7.4z" fill="#000000" stroke="none" stroke-width="1" stroke-linecap="butt" stroke-linejoin="miter" stroke-miterlimit="10"></path><path d="M206.915,117.58947c3.6,0.5 6.9,2.2 9.9,5.1c3.3,3.3 3.6,6.2 0.9,8.9c-2.6,2.5 -5.7,2.2 -9.2,-1c-2.8,-2.5 -4.7,-5.3 -5.7,-8.2l0.9,-32h2z" fill="#000000" stroke="none" stroke-width="1" stroke-linecap="butt" stroke-linejoin="miter" stroke-miterlimit="10"></path><path d="M235.81306,121.02213c-1,5.8 -5.5,8.6 -13.6,8.4l0.7,-33.5h2l1.1,25.5c0.2,-7 2,-10.3 5.5,-9.8c1.5,0.2 2.6,1.3 3.5,3.2c1,1.9 1.2,3.9 0.8,6.2z" fill="#000000" stroke="none" stroke-width="1" stroke-linecap="butt" stroke-linejoin="miter" stroke-miterlimit="10"></path><path d="M129.30935,115.66514l-8.4,10h-9.9l0.9,-32h2l1.1,24.3c0.2,-0.3 0.6,-0.5 1.3,-0.6c0.7,-0.1 1.2,0 1.6,0.3c0.7,-1.9 2.1,-3.3 4.4,-4.1c2.6,-1 5,-0.3 7,2.1z" fill="#000000" stroke="none" stroke-width="1" stroke-linecap="butt" stroke-linejoin="miter" stroke-miterlimit="10"></path><path d="M143.63028,47.52213c-0.4,-0.1 -0.7,-0.1 -1.1,-0.2c-4.7,-0.7 -8.9,0.3 -12.7,3c-3.8,2.8 -6.1,6.5 -6.9,11.1c-0.7,4.6 0.3,8.8 3,12.6c0,0 0.1,0 0.1,0.1c0.4,-1.2 1.2,-2.2 2.3,-3c1.4,-1 2.9,-1.4 4.6,-1.1c1.6,0.3 2.9,1.1 3.9,2.5c1,1.4 1.4,2.9 1.1,4.6c-0.2,1.5 -0.9,2.7 -2,3.6c-0.1,0.1 -0.3,0.2 -0.5,0.3c-1.4,1 -2.9,1.4 -4.6,1.1c-0.6,-0.1 -1.1,-0.3 -1.6,-0.5c-0.5,-0.3 -1,-0.6 -1.5,-1c-1.6,-1.2 -3.1,-2.7 -4.4,-4.5c-3.2,-4.4 -4.4,-9.4 -3.5,-14.9c0.8,-5.5 3.5,-9.9 8.1,-13.1c4.5,-3.3 9.4,-4.4 14.9,-3.6c0.3,0.1 0.5,0.2 0.8,0.2z" fill="#000000" stroke="none" stroke-width="1" stroke-linecap="butt" stroke-linejoin="miter" stroke-miterlimit="10"></path><path d="M113.565,71.52218c1.2,1.2 1.8,2.6 1.8,4.3c0,1.7 -0.5,3 -1.7,4.2c-1.2,1.2 -2.6,1.8 -4.3,1.8c-1.7,0 -3,-0.5 -4.2,-1.7c-1.2,-1.2 -1.8,-2.6 -1.8,-4.3c0,-1.7 0.6,-3.1 1.8,-4.2c0.7,-0.7 1.4,-1.2 2.3,-1.5l0.9,-25.3h2l0.8,25.3c0.9,0.2 1.7,0.7 2.4,1.4z" fill="#000000" stroke="none" stroke-width="1" stroke-linecap="butt" stroke-linejoin="miter" stroke-miterlimit="10"></path><path d="M210.5889,84.47217c-0.7,1.1 -2.1,1.6 -4,1.5c-2.1,-0.1 -3.4,-1 -3.8,-2.9c-1,2.1 -3,2.8 -5.9,2c-2.9,-0.7 -4.3,-2.1 -4.3,-4.1c0,-5.2 0.4,-16.3 1.1,-33.4h2l1,29.6c1.8,-0.6 3.3,-1.1 4.7,-1.6c2.7,-0.8 4.3,-1.2 4.8,-1c0.9,0.3 2,1.6 3.4,4c1.6,2.7 1.9,4.7 1,5.9z" fill="#000000" stroke="none" stroke-width="1" stroke-linecap="butt" stroke-linejoin="miter" stroke-miterlimit="10"></path><g fill="#000000" stroke="none" stroke-width="1" stroke-linecap="butt" stroke-linejoin="miter" stroke-miterlimit="10"><path d="M98.03945,72.77214c1.2,1.2 1.8,2.6 1.8,4.3c0,1.7 -0.5,3 -1.7,4.2c-1.2,1.2 -2.6,1.8 -4.3,1.8c-1.7,0 -3,-0.5 -4.2,-1.7c-1.2,-1.2 -1.8,-2.6 -1.8,-4.3c0,-1.7 0.6,-3.1 1.8,-4.2c0.7,-0.7 1.4,-1.2 2.3,-1.5l0.9,-25.3h2l0.8,25.3c0.9,0.2 1.7,0.7 2.4,1.4z"></path><path d="M97.93945,89.62216c-1.2,0 -1.8,-2.4 -1.8,-7.2c0,-4.8 0.6,-7.2 1.8,-7.2c1.2,0 1.8,2.4 1.8,7.2c0,4.8 -0.6,7.2 -1.8,7.2z"></path></g><g fill="#000000" stroke="none" stroke-width="1" stroke-linecap="butt" stroke-linejoin="miter" stroke-miterlimit="10"><path d="M154.29,43.77218c0,0.7 0,1.4 0,2c-1.6,0.4 -3.1,1.1 -4.5,2.3c-2.3,1.9 -3.9,4.5 -4.7,7.8c-1,3.9 -0.7,7.5 0.9,10.9c1.6,3.3 3.9,5.4 6.8,6.2l-0.5,5c-3.9,-1 -6.9,-3.8 -8.8,-8.4c-1.8,-4.4 -2.1,-9 -0.7,-13.8c1.1,-3.9 3.1,-7 5.9,-9.3c1.7,-1.4 3.6,-2.3 5.6,-2.7z"></path><path d="M149.89,79.97217c-1.2,-1.2 -1.8,-2.6 -1.8,-4.3c0,-1.7 0.5,-3 1.7,-4.2c1.2,-1.2 2.6,-1.8 4.3,-1.8c1.7,0 3,0.5 4.2,1.7c1.2,1.2 1.8,2.6 1.8,4.3c0,1.7 -0.5,3 -1.7,4.2c-1.2,1.2 -2.6,1.8 -4.3,1.8c-1.7,0 -3,-0.5 -4.2,-1.7z"></path></g><g fill="#000000" stroke="none" stroke-width="1" stroke-linecap="butt" stroke-linejoin="miter" stroke-miterlimit="10"><path d="M157.9942,66.37218c-1.8,-4.4 -2.1,-9 -0.7,-13.8c1.1,-3.9 3.1,-7 5.9,-9.3c1.8,-1.4 3.6,-2.3 5.6,-2.6c0,0.7 0,1.4 0,2c-1.6,0.4 -3.1,1.1 -4.5,2.3c-2.3,1.9 -3.9,4.5 -4.7,7.8c-1,3.9 -0.7,7.5 0.9,10.9c1.6,3.3 3.9,5.4 6.8,6.2v2.7c-4.3,0.5 -7.4,-1.6 -9.3,-6.2z"></path><path d="M163.7942,80.77213c-1,-1 -1.7,-2.3 -1.9,-3.8c-0.6,-3.8 1.2,-6.1 5.4,-7.1c1,4.2 1,8.5 0,12.7c-1.2,0 -2.4,-0.6 -3.5,-1.8z"></path></g><g fill="#000000" stroke="none" stroke-linecap="butt" stroke-linejoin="miter" stroke-miterlimit="10"><path d="M182.29,45.48952c0,0.7 0,1.4 0,2c-1.6,0.4 -3.1,1.1 -4.5,2.3c-2.3,1.9 -3.9,4.5 -4.7,7.8c-1,3.9 -0.7,7.5 0.9,10.9c1.6,3.3 3.9,5.4 6.8,6.2l-0.5,5c-3.9,-1 -6.9,-3.8 -8.8,-8.4c-1.8,-4.4 -2.1,-9 -0.7,-13.8c1.1,-3.9 3.1,-7 5.9,-9.3c1.7,-1.4 3.6,-2.3 5.6,-2.7z" stroke-width="1"></path><path d="M177.89,81.68948c-1.2,-1.2 -1.8,-2.6 -1.8,-4.3c0,-1.7 0.5,-3 1.7,-4.2c1.2,-1.2 2.6,-1.8 4.3,-1.8c1.7,0 3,0.5 4.2,1.7c1.2,1.2 1.8,2.6 1.8,4.3c0,1.7 -0.5,3 -1.7,4.2c-1.2,1.2 -2.6,1.8 -4.3,1.8c-1.7,0 -3,-0.5 -4.2,-1.7z" stroke-width="1"></path><path d="M177.7567,78.33463c-1.1038,-0.4694 -0.7168,-2.9117 1.161,-7.3267c1.8778,-4.415 3.3685,-6.3878 4.4723,-5.9184c1.1038,0.4694 0.7167,2.9117 -1.161,7.3267c-1.8778,4.4151 -3.3686,6.3879 -4.4723,5.9184z" stroke-width="0.99954"></path></g><path d="M389.16797,121.32218c0.8,1 0.8,2.8 -0.1,5.5c-1,3.1 -3.3,4.7 -6.5,4.7c-3.2,0 -5.4,-1.5 -6.5,-4.6c-1,-2.7 -1,-4.6 0,-5.7c0.8,-0.7 1.3,-0.8 1.5,-0.2c0,0 0.1,1 0.3,2.9c0.4,3.5 2,5.2 4.8,5.2c2.4,0 3.9,-1.7 4.7,-5c0.2,-0.8 0.4,-1.7 0.7,-2.8c0.3,-0.6 0.7,-0.7 1.1,0z" fill="#000000" stroke="none" stroke-width="1" stroke-linecap="butt" stroke-linejoin="miter" stroke-miterlimit="10"></path><path d="M368.84129,127.82821c-0.3,-1.1 -0.5,-2 -0.7,-2.8c-0.8,-3.3 -2.3,-5 -4.7,-5c-2.8,0 -4.4,1.7 -4.8,5.2c-0.2,1.9 -0.3,2.9 -0.3,2.9c-0.2,0.6 -0.7,0.5 -1.5,-0.2c-1,-1.1 -1,-3 0,-5.7c1.1,-3.1 3.3,-4.6 6.5,-4.6c3.2,0 5.5,1.6 6.5,4.7c0.9,2.7 0.9,4.5 0.1,5.5c-0.4,0.7 -0.8,0.6 -1.1,0z" data-paper-data="{&quot;index&quot;:null}" fill="#000000" stroke="none" stroke-width="1" stroke-linecap="butt" stroke-linejoin="miter" stroke-miterlimit="10"></path><path d="M347.63945,113.52218l-7.8,8.6l9.1,-1.4l-8.4,3.3l10.2,2.2l-18.7,-0.9z" fill="#000000" stroke="none" stroke-width="1" stroke-linecap="butt" stroke-linejoin="miter" stroke-miterlimit="10"></path><path d="M319.29,124.42218l-8.4,-3.3l9.1,1.4l-7.8,-8.6l15.6,11.9l-18.6,0.9z" fill="#000000" stroke="none" stroke-width="1" stroke-linecap="butt" stroke-linejoin="miter" stroke-miterlimit="10"></path><path d="M408.04,60.72218c0.2,0 0.4,0.2 0.6,0.4c0,0.2 -0.1,0.4 -0.2,0.6c-0.2,0.2 -0.4,0.3 -0.7,0.4l-10.8,4.3c-1.1,0.5 -2.1,0.7 -3,0.7c-1,0 -1.6,-0.2 -1.7,-0.7c-0.2,-0.4 0.2,-0.9 1.1,-1.5c0.7,-0.5 1.6,-0.9 2.8,-1.3l11.1,-3c0.3,0 0.6,0 0.8,0.1M404.44,76.8221c0,2.1 -0.3,3.8 -1,5.3c-0.7,1.5 -1.5,2.3 -2.5,2.3c-1,0 -1.8,-0.8 -2.5,-2.3c-0.7,-1.4 -1,-3.2 -1,-5.3c0,-2.1 0.3,-3.9 1,-5.4c0.7,-1.5 1.5,-2.2 2.5,-2.2c0.9,0 1.7,0.7 2.4,2.2c0.7,1.5 1,3.3 1.1,5.4z" fill="#000000" stroke="none" stroke-width="1" stroke-linecap="butt" stroke-linejoin="miter" stroke-miterlimit="10"></path><path d="M274.74,49.82211c0,2.1 -0.3,3.8 -1,5.3c-0.6,1.5 -1.4,2.3 -2.4,2.3c-1,0 -1.8,-0.8 -2.5,-2.3c-0.7,-1.4 -1,-3.2 -1,-5.3c0,-2.1 0.4,-3.9 1,-5.4c0.7,-1.5 1.5,-2.2 2.5,-2.2c1,0 1.8,0.7 2.4,2.2c0.7,1.5 1,3.3 1,5.4z" fill="#000000" stroke="none" stroke-width="1" stroke-linecap="butt" stroke-linejoin="miter" stroke-miterlimit="10"></path><path d="M306.44,132.86913c0,0.1 0,0.2 0,0.3c-0.1,0.3 -0.4,0.6 -0.9,0.7l-9.1,3.6c-0.1,0 -0.2,0 -0.3,0c-0.1,0 -0.1,0 -0.2,0c-0.1,-0.1 -0.2,-0.2 -0.4,-0.3c0,0 0,0 -0.1,-0.1c0,-0.1 0,-0.1 0,-0.2c0.1,-0.1 0.2,-0.2 0.2,-0.3l7.7,-3.9c0.3,0 0.5,-0.1 0.7,-0.2c0.3,0 0.5,-0.1 0.7,-0.1c0.6,-0.1 1,0 1.3,0.1c0.3,0.2 0.4,0.3 0.4,0.4M299.54,109.96905c0.3,0.2 0.2,0.7 -0.1,1.4c-0.5,1 -1,1.9 -1.6,2.7l-8,11.3h-0.1c-0.1,0.1 -0.2,0 -0.2,0c-0.1,0.1 -0.1,0 -0.1,0c0,-0.1 0,-0.1 0,-0.2l7.1,-12.1c0.5,-0.9 1.1,-1.7 1.7,-2.4c0.7,-0.6 1.1,-0.8 1.3,-0.7M305.14,114.76913c-1.5,1.8 -4.2,4.7 -8.1,8.6c0.4,2.1 0.6,3.8 0.6,5.3c0,2.1 -0.3,3.8 -1,5.3c-0.7,1.5 -1.5,2.3 -2.5,2.3c-0.9,0 -1.7,-0.8 -2.4,-2.3c-0.7,-1.4 -1,-3.2 -1,-5.3c0,-0.8 0,-1.5 0.1,-2c0,-0.7 0.3,-1.3 0.7,-1.7c0.4,-0.5 1.9,-1.9 4.6,-4.2c2.7,-2.3 5,-4.5 7,-6.5c2,-2 3.1,-3 3.3,-3.1c0.3,-0.1 0.4,-0.1 0.5,0c0.1,0.1 0.2,0.3 0.3,0.5c0.1,0.2 -0.6,1.2 -2.1,3.1z" fill="#000000" stroke="none" stroke-width="1" stroke-linecap="butt" stroke-linejoin="miter" stroke-miterlimit="10"></path><path d="M277.04,140.32217c-0.1,0.1 -0.2,0.2 -0.4,0.3c-0.1,0 -0.2,0 -0.2,0c-0.1,0 -0.1,0 -0.2,0l-9.1,-3.6c-0.4,-0.1 -0.7,-0.4 -0.9,-0.7c-0.1,0 -0.1,-0.1 0,-0.3c0,-0.2 0.1,-0.3 0.3,-0.4c0.3,-0.1 0.7,-0.1 1.3,-0.1c0.3,0 0.5,0.1 0.8,0.1c0.2,0.1 0.4,0.2 0.6,0.2l7.7,3.9c0.1,0.1 0.2,0.2 0.2,0.3c0,0.1 0,0.2 0,0.2l-0.1,0.1M281.84,129.82217c0.1,0.4 0.1,1.1 0,2c0,2.1 -0.3,3.8 -1,5.3c-0.6,1.5 -1.4,2.3 -2.4,2.3c-1,0 -1.8,-0.8 -2.5,-2.3c-0.6,-1.4 -0.9,-3.2 -0.9,-5.3c0,-1.5 0.2,-3.3 0.6,-5.3c-3.9,-3.8 -6.6,-6.7 -8.1,-8.6c-1.5,-1.8 -2.2,-2.9 -2.1,-3.1c0.1,-0.3 0.2,-0.4 0.3,-0.5c0,-0.1 0.2,-0.1 0.4,0c0.3,0.1 1.4,1.1 3.4,3.1c1.9,2 4.2,4.2 6.9,6.5c2.7,2.4 4.3,3.8 4.7,4.2c0.4,0.5 0.7,1 0.7,1.7M274.84,117.3221c-0.6,-0.9 -1.1,-1.8 -1.6,-2.7c-0.3,-0.8 -0.4,-1.3 -0.2,-1.5c0.3,-0.1 0.7,0.1 1.3,0.7c0.6,0.7 1.2,1.5 1.7,2.4l7.2,12.2c0,0.1 0,0.2 0,0.2c-0.1,0 -0.1,0 -0.3,0c0.1,0 0,0 0,0z" fill="#000000" stroke="none" stroke-width="1" stroke-linecap="butt" stroke-linejoin="miter" stroke-miterlimit="10"></path><path d="M311.74,94.32218c0.7,1.5 1,3.3 1,5.4c0,2.1 -0.3,3.8 -1,5.3c-0.6,1.5 -1.4,2.3 -2.4,2.3c-1,0 -1.8,-0.8 -2.5,-2.3c-0.7,-1.4 -1,-3.2 -1,-5.3c0,-2.1 0.4,-3.9 1,-5.4c0.7,-1.5 1.5,-2.2 2.5,-2.2c1,0 1.8,0.7 2.4,2.2M318.24,86.92218c-0.3,0.2 -0.7,0.3 -1.1,0.1c-0.4,-0.2 -0.7,-0.4 -0.9,-0.8c-2.4,-5 -5.9,-7 -10.4,-6.1c-1.1,0.2 -1.6,0.1 -1.6,-0.5c0,-0.6 0.4,-1.1 1.3,-1.4c5.9,-1.9 10.3,0.4 13.4,6.6c0.2,0.4 0.2,0.7 0.1,1.1c-0.1,0.5 -0.4,0.8 -0.8,1z" fill="#000000" stroke="none" stroke-width="1" stroke-linecap="butt" stroke-linejoin="miter" stroke-miterlimit="10"></path><path d="M393.14,112.12218c-0.6,1.5 -1.4,2.3 -2.4,2.3c-1,0 -1.8,-0.8 -2.5,-2.3c-0.7,-1.4 -1,-3.2 -1,-5.3c0,-2.1 0.4,-3.9 1,-5.4c0.7,-1.5 1.5,-2.2 2.5,-2.2c1,0 1.8,0.7 2.4,2.2c0.6,1.5 1,3.3 1,5.4c0,2.1 -0.3,3.8 -1,5.3M406.74,110.82218c0,0.8 -0.4,1.1 -1.1,1c-0.6,0 -0.9,-0.6 -1.1,-1.8c-0.1,-0.4 -0.2,-1.9 -0.3,-4.6c-0.6,-9.2 -3.2,-15.3 -8.1,-18.5c-2.9,-1.9 -6.3,-2.4 -10.3,-1.3c2.7,-1.7 5.5,-2.2 8.6,-1.6c2.3,0.4 3.9,1 4.9,1.8c1.5,1 2.9,2.8 4.3,5.4c2.8,5.1 3.8,11.6 3.1,19.6z" fill="#000000" stroke="none" stroke-width="1" stroke-linecap="butt" stroke-linejoin="miter" stroke-miterlimit="10"></path><path d="M296.24,94.42213c0.7,1.5 1,3.3 1,5.4c0,2.1 -0.3,3.8 -1,5.3c-0.6,1.5 -1.4,2.3 -2.4,2.3c-1,0 -1.8,-0.8 -2.5,-2.3c-0.7,-1.4 -1,-3.2 -1,-5.3c0,-2.1 0.4,-3.9 1,-5.4c0.7,-1.5 1.5,-2.2 2.5,-2.2c1,0 1.8,0.7 2.4,2.2M298.54,85.42218c-1.7,-1.6 -3.3,-2.4 -4.9,-2.4c-1.6,0 -3.1,0.8 -4.7,2.5c-1.3,1.3 -2.1,1.8 -2.6,1.4c-0.7,-0.7 -0.3,-1.9 1.1,-3.8c1.6,-2 3.7,-3.1 6.3,-3.1c2.6,0 4.8,1 6.4,3c1.5,1.9 1.8,3.2 1.1,3.9c-0.2,0.3 -1.1,-0.2 -2.7,-1.5z" fill="#000000" stroke="none" stroke-width="1" stroke-linecap="butt" stroke-linejoin="miter" stroke-miterlimit="10"></path><path d="M280.34001,94.52214c0.7,1.5 1.1,3.3 1.1,5.4c0,2.1 -0.3,3.8 -1,5.3c-0.7,1.5 -1.5,2.3 -2.5,2.3c-0.9,0 -1.7,-0.8 -2.4,-2.3c-0.7,-1.4 -1,-3.2 -1,-5.3c0,-2.1 0.3,-3.9 1,-5.4c0.6,-1.5 1.4,-2.2 2.4,-2.2c1,0 1.8,0.7 2.4,2.2M270.94001,86.22218c-0.2,0.4 -0.5,0.7 -0.9,0.8c-0.4,0.1 -0.7,0.1 -1.1,-0.1c-0.4,-0.2 -0.6,-0.5 -0.8,-0.9c-0.1,-0.4 -0.1,-0.7 0.1,-1.1c2.9,-5.6 7.3,-7.8 13.5,-6.6c1.3,0.4 1.9,0.8 1.8,1.3c-0.1,0.5 -0.7,0.7 -2,0.4c-4.6,-0.9 -8.1,1.2 -10.6,6.2z" fill="#000000" stroke="none" stroke-width="1" stroke-linecap="butt" stroke-linejoin="miter" stroke-miterlimit="10"></path><path d="M372.64,84.82211c3.1,-0.6 6,0 8.6,1.4c-3.9,-1 -7.4,-0.6 -10.3,1.3c-4.8,3.2 -7.5,9.4 -8,18.5c-0.1,2.7 -0.2,4.2 -0.3,4.6c-0.1,1.2 -0.5,1.8 -1,1.8c-0.8,0.1 -1.1,-0.2 -1.2,-1c-0.7,-7.8 0.4,-14.3 3.1,-19.4c1.5,-2.6 2.9,-4.4 4.3,-5.4c1,-0.8 2.6,-1.4 4.8,-1.8M379.94,107.7221c0,2.1 -0.3,3.8 -1,5.3c-0.7,1.5 -1.5,2.3 -2.5,2.3c-0.9,0 -1.7,-0.8 -2.4,-2.3c-0.7,-1.4 -1,-3.2 -1,-5.3c0,-2.1 0.3,-3.9 1,-5.4c0.6,-1.5 1.4,-2.2 2.4,-2.2c1,0 1.8,0.7 2.4,2.2c0.7,1.5 1.1,3.3 1.1,5.4z" fill="#000000" stroke="none" stroke-width="1" stroke-linecap="butt" stroke-linejoin="miter" stroke-miterlimit="10"></path><g fill="#000000" stroke="none" stroke-width="1" stroke-linecap="butt" stroke-linejoin="miter" stroke-miterlimit="10"><path d="M287.387,45.62218c0.7,1.5 1.1,3.3 1.1,5.4c0,1.9 -0.3,3.6 -0.9,5h-5.2c-0.5,-1.4 -0.8,-3.1 -0.8,-5c-0.1,-2.1 0.3,-3.8 0.9,-5.4c0.7,-1.5 1.5,-2.2 2.5,-2.2c1,0 1.8,0.8 2.4,2.2z"></path><path d="M276.987,57.22216c-0.2,0 -0.4,-0.1 -0.5,-0.2c-0.1,-0.2 -0.2,-0.3 -0.2,-0.5c0,-0.1 0.1,-0.3 0.2,-0.4c0.2,-0.2 0.3,-0.3 0.5,-0.3l7.7,-1.2c0.8,-0.1 1.5,-0.1 2,0.1c0.7,0.2 1.1,0.6 1.1,1c-0.1,0.5 -0.4,0.8 -1.1,1.1c-0.5,0.2 -1.2,0.4 -2,0.4z"></path></g><g fill="#000000" stroke="none" stroke-width="1" stroke-linecap="butt" stroke-linejoin="miter" stroke-miterlimit="10"><path d="M300.24,50.32213c0,1.9 -0.3,3.6 -0.9,5h-5.2c-0.5,-1.4 -0.8,-3.1 -0.8,-5c0,-2.1 0.4,-3.9 1,-5.4c0.7,-1.5 1.5,-2.2 2.5,-2.2c1,0 1.8,0.7 2.4,2.2c0.7,1.5 1,3.3 1,5.4z"></path><path d="M302.24,55.02216c0.1,0 0.2,0.1 0.3,0.2c0.1,0.1 0.2,0.2 0.2,0.4c-0.1,0.2 -0.1,0.4 -0.2,0.5c-0.1,0.1 -0.2,0.2 -0.3,0.2h-10.8c-0.2,0 -0.3,-0.1 -0.3,-0.2c-0.1,-0.2 -0.1,-0.3 -0.1,-0.5c0,-0.1 0,-0.3 0.1,-0.3c0.1,-0.2 0.2,-0.3 0.3,-0.3l4.8,-1.2c0.2,0 0.4,0 0.6,0c0.2,-0.1 0.4,0 0.6,0z"></path></g><g fill="#000000" stroke="none" stroke-width="1" stroke-linecap="butt" stroke-linejoin="miter" stroke-miterlimit="10"><path d="M309.16132,44.44718c1,0 1.8,0.8 2.4,2.2c0.6,1.5 1,3.3 1,5.4c0,1.9 -0.3,3.6 -0.9,5h-5.2c-0.5,-1.4 -0.8,-3.1 -0.8,-5c0,-2.1 0.4,-3.9 1,-5.4c0.7,-1.4 1.5,-2.2 2.5,-2.2z"></path><path d="M317.86132,57.54718c0,0.2 -0.1,0.4 -0.2,0.5c-0.1,0.1 -0.3,0.2 -0.5,0.2h-7.7c-0.7,0 -1.4,-0.2 -2.1,-0.3c-0.7,-0.3 -1,-0.7 -1,-1.1c0,-0.5 0.3,-0.8 1,-1c0.6,-0.2 1.3,-0.2 2.1,-0.1l7.7,1.2c0.2,0 0.4,0.1 0.5,0.2c0.1,0.1 0.2,0.3 0.2,0.4z"></path></g><g fill="#000000" stroke="none" stroke-width="1" stroke-linecap="butt" stroke-linejoin="miter" stroke-miterlimit="10"><path d="M329.84,51.32213c0,2.1 -0.3,3.8 -1,5.3c-0.6,1.5 -1.4,2.3 -2.4,2.3c-1,0 -1.8,-0.8 -2.5,-2.3c-0.6,-1.4 -0.9,-3.2 -0.9,-5.3c0,-2 0.3,-3.7 0.9,-5.2h5.1c0.6,1.5 0.9,3.2 0.8,5.2z"></path><path d="M318.44,46.42214c-0.2,-0.1 -0.4,-0.2 -0.5,-0.3c-0.1,-0.1 -0.2,-0.3 -0.2,-0.5c0,-0.1 0.1,-0.3 0.2,-0.4c0.2,-0.1 0.3,-0.2 0.5,-0.2h7.7c0.8,0 1.5,0.2 2,0.4c0.7,0.3 1.1,0.7 1.1,1.1c-0.1,0.4 -0.4,0.7 -1.1,0.9c-0.5,0.2 -1.2,0.2 -2,0.1z"></path></g><g fill="#000000" stroke="none" stroke-width="1" stroke-linecap="butt" stroke-linejoin="miter" stroke-miterlimit="10"><path d="M341.19129,51.42218c0,2.1 -0.3,3.8 -1,5.3c-0.6,1.5 -1.4,2.3 -2.4,2.3c-1,0 -1.8,-0.8 -2.5,-2.3c-0.7,-1.4 -1,-3.2 -1,-5.3c0,-2 0.3,-3.7 0.9,-5.2h5.1c0.6,1.5 0.9,3.2 0.9,5.2z"></path><path d="M337.79129,48.12218c-0.2,0 -0.4,-0.1 -0.6,-0.1l-4.8,-1.1c-0.1,-0.1 -0.2,-0.2 -0.3,-0.3c-0.1,-0.1 -0.1,-0.3 -0.1,-0.5c0,-0.1 0,-0.3 0.1,-0.4c0.1,-0.1 0.2,-0.2 0.3,-0.2h10.8c0.1,0 0.2,0 0.2,0.2c0.1,0.1 0.2,0.3 0.2,0.4c0,0.2 0,0.3 -0.1,0.4c-0.1,0.2 -0.2,0.3 -0.3,0.3l-4.8,1.1c-0.2,0.1 -0.4,0.2 -0.6,0.2z"></path></g><g fill="#000000" stroke="none" stroke-width="1" stroke-linecap="butt" stroke-linejoin="miter" stroke-miterlimit="10"><path d="M351.99,51.32218c0,2.1 -0.3,3.8 -1,5.3c-0.6,1.5 -1.4,2.3 -2.4,2.3c-1,0 -1.8,-0.8 -2.5,-2.3c-0.6,-1.4 -0.9,-3.2 -0.9,-5.3c0,-2 0.3,-3.7 0.9,-5.2h5.1c0.6,1.5 0.9,3.2 0.8,5.2z"></path><path d="M348.99,47.52217c-0.8,0.1 -1.5,0.1 -2.1,-0.1c-0.7,-0.2 -1,-0.5 -1,-0.9c0,-0.4 0.3,-0.8 1,-1.1c0.6,-0.2 1.3,-0.4 2.1,-0.4h7.7c0.2,0 0.4,0.1 0.5,0.2c0.1,0.1 0.2,0.3 0.2,0.4c0,0.2 -0.1,0.4 -0.2,0.5c-0.1,0.2 -0.3,0.3 -0.5,0.3z"></path></g><g fill="#000000" stroke="none" stroke-width="1" stroke-linecap="butt" stroke-linejoin="miter" stroke-miterlimit="10"><path d="M391.84,44.5222c1,0 1.8,0.7 2.5,2.2c0.6,1.6 1,3.3 0.9,5.4c0,1.9 -0.3,3.6 -0.8,5h-5.2c-0.6,-1.4 -0.9,-3.1 -0.9,-5c0,-2.1 0.4,-3.9 1.1,-5.4c0.6,-1.4 1.4,-2.2 2.4,-2.2z" data-paper-data="{&quot;index&quot;:null}"></path><path d="M392.14,58.3222c-0.8,0 -1.5,-0.2 -2,-0.4c-0.7,-0.3 -1,-0.6 -1.1,-1.1c0,-0.4 0.4,-0.8 1.1,-1c0.5,-0.2 1.2,-0.2 2,-0.1l7.7,1.2c0.2,0 0.3,0.1 0.5,0.3c0.1,0.1 0.2,0.3 0.2,0.4c0,0.2 -0.1,0.3 -0.2,0.5c-0.1,0.1 -0.3,0.2 -0.5,0.2z" data-paper-data="{&quot;index&quot;:null}"></path><path d="M401.24,44.25651c0.2,0 0.4,0.1 0.5,0.2c0.1,0.2 0.2,0.3 0.2,0.5c0,0.1 -0.1,0.3 -0.2,0.4c-0.2,0.2 -0.3,0.3 -0.5,0.3l-7.7,1.2c-0.8,0.1 -1.5,0.1 -2,-0.1c-0.7,-0.2 -1.1,-0.6 -1.1,-1c0.1,-0.5 0.4,-0.8 1.1,-1.1c0.5,-0.2 1.2,-0.4 2,-0.4z" data-paper-data="{&quot;index&quot;:null}"></path></g><g fill="#000000" stroke="none" stroke-width="1" stroke-linecap="butt" stroke-linejoin="miter" stroke-miterlimit="10"><path d="M369.84,46.72215c0.7,1.5 1.1,3.3 1.1,5.4c0,1.9 -0.3,3.6 -0.9,5h-5.2c-0.5,-1.4 -0.8,-3.1 -0.8,-5c-0.1,-2.1 0.3,-3.8 0.9,-5.4c0.7,-1.5 1.5,-2.2 2.5,-2.2c1,0 1.8,0.8 2.4,2.2z"></path><path d="M359.44,58.32218c-0.2,0 -0.4,-0.1 -0.5,-0.2c-0.1,-0.2 -0.2,-0.3 -0.2,-0.5c0,-0.1 0.1,-0.3 0.2,-0.4c0.2,-0.2 0.3,-0.3 0.5,-0.3l7.7,-1.2c0.8,-0.1 1.5,-0.1 2,0.1c0.7,0.2 1.1,0.6 1.1,1c-0.1,0.5 -0.4,0.8 -1.1,1.1c-0.5,0.2 -1.2,0.4 -2,0.4z"></path><path d="M365.74,44.25641c0.8,0 1.5,0.2 2,0.4c0.7,0.3 1,0.6 1.1,1.1c0,0.4 -0.4,0.8 -1.1,1c-0.5,0.2 -1.2,0.2 -2,0.1l-7.7,-1.2c-0.2,0 -0.3,-0.1 -0.5,-0.3c-0.1,-0.1 -0.2,-0.3 -0.2,-0.4c0,-0.2 0.1,-0.3 0.2,-0.5c0.1,-0.1 0.3,-0.2 0.5,-0.2z" data-paper-data="{&quot;index&quot;:null}"></path></g><g fill="#000000" stroke="none" stroke-width="1" stroke-linecap="butt" stroke-linejoin="miter" stroke-miterlimit="10"><path d="M382.21068,51.36063c0,2.20449 -0.34808,4.17692 -1.04423,5.80128c0,0 -1.95126,-0.58013 -2.97316,-0.58013c-0.98807,0 -3.06018,0.58013 -3.06018,0.58013c-0.58013,-1.62436 -0.92821,-3.59679 -0.92821,-5.80128c0,-2.43654 0.4641,-4.525 1.16026,-6.26538c0.19768,-0.42361 1.46044,0.21552 2.82816,0.21705c1.28469,0.00144 2.67908,-0.6621 2.8571,-0.21705c0.81218,1.74038 1.16026,3.82885 1.16026,6.26538z"></path><path d="M384.53119,56.81385c0.11603,0 0.23205,0.11603 0.34808,0.23205c0.11603,0.11603 0.23205,0.23205 0.23205,0.4641c-0.11603,0.23205 -0.11603,0.4641 -0.23205,0.58013c-0.11603,0.11603 -0.23205,0.23205 -0.34808,0.23205h-12.53077c-0.23205,0 -0.34808,-0.11603 -0.34808,-0.23205c-0.11603,-0.23205 -0.11603,-0.34808 -0.11603,-0.58013c0,-0.11603 0,-0.34808 0.11603,-0.34808c0.11603,-0.23205 0.23205,-0.34808 0.34808,-0.34808l5.56923,-1.39231c0.23205,0 0.4641,0 0.69615,0c0.23205,-0.11603 0.4641,0 0.69615,0z"></path><path d="M378.26581,47.53173c-0.23205,0 -0.4641,-0.11603 -0.69615,-0.11603l-5.56923,-1.27628c-0.11603,-0.11603 -0.23205,-0.23205 -0.34808,-0.34808c-0.11603,-0.11603 -0.11603,-0.34808 -0.11603,-0.58013c0,-0.11603 0,-0.34808 0.11603,-0.4641c0.11603,-0.11603 0.23205,-0.23205 0.34808,-0.23205h12.53077c0.11603,0 0.23205,0 0.23205,0.23205c0.11603,0.11603 0.23205,0.34808 0.23205,0.4641c0,0.23205 0,0.34808 -0.11603,0.4641c-0.11603,0.23205 -0.23205,0.34808 -0.34808,0.34808l-5.56923,1.27628c-0.23205,0.11603 -0.4641,0.23205 -0.69615,0.23205z"></path></g><g fill="#000000" stroke="none" stroke-width="1" stroke-linecap="butt" stroke-linejoin="miter" stroke-miterlimit="10"><path d="M276.44,69.8221c0,2.1 -0.3,3.8 -1,5.3c-0.6,1.5 -1.4,2.3 -2.4,2.3c-1,0 -1.8,-0.8 -2.5,-2.3c-0.7,-1.4 -1,-3.2 -1,-5.3c0,-2 0.3,-3.7 0.9,-5.2l5.6,2.2c0.2,0 0.4,1 0.4,3z"></path><path d="M276.14,67.82218c-0.2,0.5 -0.7,0.7 -1.5,0.5c-0.6,-0.1 -1.3,-0.4 -2.1,-0.8l-7.3,-5.2c-0.1,-0.1 -0.2,-0.3 -0.3,-0.5c-0.1,-0.2 -0.1,-0.4 0,-0.6c0.1,-0.2 0.2,-0.3 0.4,-0.4c0.2,0 0.4,0 0.6,0.1l7.9,3.9c0.8,0.5 1.4,1 1.8,1.5c0.6,0.6 0.8,1.2 0.5,1.5z"></path></g><g fill="#000000" stroke="none" stroke-width="1" stroke-linecap="butt" stroke-linejoin="miter" stroke-miterlimit="10"><path d="M288.74,65.52218c0.7,1.5 1,3.2 1,5.3c0,2.1 -0.3,3.8 -1,5.3c-0.6,1.5 -1.4,2.3 -2.4,2.3c-1,0 -1.8,-0.8 -2.5,-2.3c-0.7,-1.4 -1,-3.2 -1,-5.3c0,-2.1 0.4,-3.9 1,-5.4c0.2,-0.3 0.3,-0.6 0.5,-0.9h2.7v1z"></path><path d="M281.34,63.32218c-0.2,-0.1 -0.3,-0.3 -0.4,-0.5c0,-0.2 0,-0.4 0.1,-0.6c0.2,-0.2 0.3,-0.3 0.5,-0.4c0.2,0 0.4,0 0.6,0l7.9,3.9c0.8,0.5 1.4,1 1.8,1.5c0.6,0.7 0.7,1.2 0.5,1.6c-0.2,0.5 -0.7,0.7 -1.5,0.5c-0.7,-0.1 -1.4,-0.4 -2.2,-0.9z"></path></g><g fill="#000000" stroke="none" stroke-width="1" stroke-linecap="butt" stroke-linejoin="miter" stroke-miterlimit="10"><path d="M302.74,69.82213c0,2.1 -0.3,3.8 -1,5.3c-0.6,1.5 -1.4,2.3 -2.4,2.3c-1,0 -1.8,-0.8 -2.6,-2.3c-0.6,-1.4 -0.9,-3.2 -0.9,-5.3c0,-2 0.4,-4.2 1.3,-6.8c1.4,-0.9 2.9,-0.3 4.6,1.6c0.7,1.5 1,3.2 1,5.2z"></path><path d="M308.64,69.52216c-0.1,0.2 -0.3,0.3 -0.5,0.3c-0.2,0.1 -0.4,0.1 -0.7,0l-8.1,-3.8c-0.8,-0.4 -1.4,-0.8 -1.8,-1.4c-0.5,-0.6 -0.7,-1.2 -0.4,-1.6c0.3,-0.3 0.9,-0.4 1.7,-0.3c0.7,0.1 1.5,0.4 2.3,0.9l7.3,4.8c0.2,0.1 0.3,0.3 0.3,0.5c0,0.2 0,0.4 -0.1,0.6z"></path></g><g fill="#000000" stroke="none" stroke-width="1" stroke-linecap="butt" stroke-linejoin="miter" stroke-miterlimit="10"><path d="M316.14,78.92218c-0.9,0 -1.7,-0.8 -2.4,-2.3c-0.7,-1.4 -1,-3.2 -1,-5.3c0,-2 0.1,-3 0.4,-3l5.6,-2.2c0.6,1.5 0.9,3.2 0.9,5.2c0,2.1 -0.3,3.8 -1,5.3c-0.7,1.5 -1.5,2.3 -2.5,2.3z"></path><path d="M316.54,68.92218c-0.7,0.5 -1.4,0.8 -2,0.9c-0.8,0.1 -1.4,0 -1.6,-0.5c-0.2,-0.3 0,-0.9 0.5,-1.5c0.5,-0.5 1.1,-1 1.9,-1.5l7.9,-3.9c0.2,-0.1 0.4,-0.1 0.5,-0.1c0.2,0.1 0.4,0.2 0.5,0.3c0,0.2 0,0.4 0,0.6c0,0.2 -0.1,0.4 -0.3,0.5z"></path></g><g fill="#000000" stroke="none" stroke-width="1" stroke-linecap="butt" stroke-linejoin="miter" stroke-miterlimit="10"><path d="M336.34,70.32218c0,2.1 -0.3,3.8 -1,5.3c-0.7,1.5 -1.5,2.3 -2.5,2.3c-1,0 -1.8,-0.8 -2.5,-2.3c-0.7,-1.4 -1,-3.2 -1,-5.3c0.1,-2.1 0.4,-3.8 1,-5.3h1.8v-1h2.7c0.1,0.3 0.3,0.6 0.5,0.9c0.6,1.5 1,3.3 1,5.4z"></path><path d="M330.24,67.92218c-0.7,0.5 -1.4,0.8 -2.1,0.9c-0.8,0.2 -1.3,0 -1.6,-0.5c-0.1,-0.3 0,-0.9 0.6,-1.5c0.5,-0.5 1.1,-1 1.9,-1.5l7.9,-3.9c0.1,-0.1 0.3,-0.1 0.5,-0.1c0.2,0.1 0.3,0.2 0.5,0.3c0,0.2 0,0.4 0,0.6c-0.1,0.3 -0.2,0.4 -0.3,0.5z"></path></g><g fill="#000000" stroke="none" stroke-width="1" stroke-linecap="butt" stroke-linejoin="miter" stroke-miterlimit="10"><path d="M346.94,63.62218c1.7,-1.9 3.3,-2.4 4.6,-1.6c0.9,2.6 1.3,4.8 1.3,6.8c0,2.1 -0.3,3.8 -1,5.3c-0.6,1.5 -1.4,2.3 -2.4,2.3c-0.9,0 -1.7,-0.8 -2.4,-2.3c-0.7,-1.4 -1,-3.2 -1,-5.3c0,-2 0.3,-3.7 0.9,-5.2z"></path><path d="M341.14,68.72213c-0.2,0.2 -0.4,0.2 -0.6,0.1c-0.2,0 -0.4,-0.1 -0.5,-0.3c-0.1,-0.2 -0.1,-0.4 -0.1,-0.6c0.1,-0.1 0.2,-0.3 0.3,-0.5l7.4,-4.8c0.8,-0.5 1.5,-0.8 2.2,-0.9c0.9,-0.1 1.4,0 1.7,0.3c0.2,0.5 0.1,1 -0.4,1.6c-0.4,0.6 -1,1 -1.9,1.4z"></path></g><g fill="#000000" stroke="none" stroke-width="1" stroke-linecap="butt" stroke-linejoin="miter" stroke-miterlimit="10"><path d="M367.225,76.82218c0,2.1 -0.3,3.8 -1,5.3c-0.6,1.5 -1.4,2.3 -2.4,2.3c-1,0 -1.8,-0.8 -2.5,-2.3c-0.7,-1.4 -1,-3.2 -1,-5.3c0,-2.1 0.4,-3.9 1,-5.4c0.7,-1.5 1.5,-2.2 2.5,-2.2c1,0 1.8,0.7 2.4,2.2c0.7,1.5 1,3.3 1,5.4z"></path><path d="M357.125,62.1221c-0.2,0 -0.4,-0.2 -0.6,-0.4c-0.1,-0.2 -0.1,-0.4 -0.1,-0.6c0.1,-0.2 0.2,-0.3 0.4,-0.4c0.3,-0.1 0.5,-0.1 0.8,-0.1l11.1,3c1.2,0.4 2.1,0.8 2.8,1.3c0.9,0.6 1.3,1.1 1.2,1.5c-0.2,0.6 -0.8,0.8 -1.8,0.7c-0.9,0 -1.9,-0.2 -3,-0.7z"></path></g><g fill="#000000" stroke="none" stroke-width="1" stroke-linecap="butt" stroke-linejoin="miter" stroke-miterlimit="10"><path d="M385.19,77.82218c0,2.1 -0.3,3.8 -1,5.3c-0.6,1.5 -1.4,2.3 -2.4,2.3c-1,0 -1.8,-0.8 -2.5,-2.3c-0.7,-1.4 -1,-3.2 -1,-5.3c0,-2.1 0.4,-3.9 1,-5.4c0.7,-1.5 1.5,-2.2 2.5,-2.2c1,0 1.8,0.7 2.4,2.2c0.7,1.5 1,3.3 1,5.4z"></path><path d="M388.59,65.72217h-13.8c-0.1,0 -0.2,-0.1 -0.3,-0.2c-0.1,-0.1 -0.2,-0.2 -0.2,-0.4c0.1,-0.1 0.1,-0.3 0.2,-0.4c0.1,-0.2 0.2,-0.3 0.3,-0.3c4.6,-1.2 9.2,-1.2 13.9,0c0.2,0.1 0.3,0.2 0.4,0.3c0.2,0.1 0.2,0.2 0.2,0.4c0,0.1 -0.1,0.3 -0.2,0.4c-0.1,0.1 -0.3,0.2 -0.5,0.2z"></path></g><g fill="#000000" stroke="none" stroke-width="1" stroke-linecap="butt" stroke-linejoin="miter" stroke-miterlimit="10"><path d="M337.05969,94.4222c0.7,1.5 1.1,3.3 1.1,5.4c0,2.1 -0.3,3.8 -1,5.3c-0.7,1.5 -1.5,2.3 -2.5,2.3c-0.9,0 -1.7,-0.8 -2.4,-2.3c-0.7,-1.4 -1,-3.2 -1,-5.3c0,-2.1 0.3,-3.9 1,-5.4c0.6,-1.5 1.4,-2.2 2.4,-2.2c1,0 1.8,0.7 2.4,2.2"></path><path d="M336.40472,79.95452c0.2,-0.4 0.5,-0.7 0.9,-0.8c0.4,-0.1 0.7,-0.1 1.1,0.1c0.4,0.2 0.6,0.5 0.8,0.9c0.1,0.4 0.1,0.7 -0.1,1.1c-2.9,5.6 -7.3,7.8 -13.5,6.6c-1.3,-0.4 -1.9,-0.8 -1.8,-1.3c0.1,-0.5 0.7,-0.7 2,-0.4c4.6,0.9 8.1,-1.2 10.6,-6.2z" data-paper-data="{&quot;index&quot;:null}"></path></g><g fill="#000000" stroke="none" stroke-width="1" stroke-linecap="butt" stroke-linejoin="miter" stroke-miterlimit="10"><path d="M347.48503,95.32218c0.6,-1.5 1.4,-2.2 2.4,-2.2c1,0 1.8,0.7 2.4,2.2c0.7,1.5 1,3.3 1,5.4c0,2.1 -0.3,3.9 -1,5.3c-0.7,1.5 -1.5,2.3 -2.4,2.3c-1,0 -1.8,-0.8 -2.5,-2.3c-0.7,-1.5 -1,-3.2 -1,-5.3c0,-2.1 0.4,-3.9 1.1,-5.4"></path><path d="M358.74,86.88786c1.3,-0.3 1.9,-0.1 2,0.4c0.1,0.5 -0.5,0.9 -1.8,1.3c-6.2,1.2 -10.6,-1 -13.5,-6.6c-0.2,-0.4 -0.2,-0.7 -0.1,-1.1c0.2,-0.4 0.4,-0.7 0.8,-0.9c0.4,-0.2 0.7,-0.2 1.1,-0.1c0.4,0.1 0.7,0.4 0.9,0.8c2.5,5 6,7.1 10.6,6.2z" data-paper-data="{&quot;index&quot;:null}"></path></g></g></g></svg>