<svg version="1.1" xmlns="http://www.w3.org/2000/svg" xmlns:xlink="http://www.w3.org/1999/xlink" width="200" height="188" viewBox="0,0,200,188"><defs><radialGradient cx="241.24124" cy="173.09807" r="74.72013" fx="241.24124" fy="173.09807" gradientUnits="userSpaceOnUse" id="color-1"><stop offset="0" stop-color="#ffe800"/><stop offset="1" stop-color="#ccbc00"/></radialGradient></defs><g transform="translate(-140,-86)"><g data-paper-data="{&quot;isPaintingLayer&quot;:true}" stroke-miterlimit="10" stroke-dasharray="" stroke-dashoffset="0" style="mix-blend-mode: normal"><path d="M294.61095,217.14222c0.52159,-0.86724 1.1933,-1.54966 2.01514,-2.04723l-5.32175,-24.69499l1.94074,-0.48301l6.97138,24.28443c0.90807,0.07858 1.78895,0.37459 2.64262,0.88802c1.41386,0.85033 2.32203,2.08414 2.72454,3.70142c0.40251,1.61728 0.17859,3.13284 -0.67175,4.5467c-0.85034,1.41384 -2.08415,2.32203 -3.70143,2.72454c-1.61728,0.40251 -3.13284,0.17859 -4.5467,-0.67175c-1.41384,-0.85033 -2.32203,-2.08414 -2.72454,-3.70142c-0.40251,-1.61728 -0.17859,-3.13285 0.67175,-4.54671z" data-paper-data="{&quot;index&quot;:null}" fill="#000000" fill-rule="nonzero" stroke="none" stroke-width="1" stroke-linecap="butt" stroke-linejoin="miter"/><path d="M140,274v-188h200v188z" fill="none" fill-rule="nonzero" stroke="none" stroke-width="NaN" stroke-linecap="butt" stroke-linejoin="miter"/><path d="M251.30056,261.66872l0.9,-32h2l1.1,25.5c2.44466,-1.03906 4.94466,-1.3224 7.5,-0.85c4.1,0.8 6.56667,3.26667 7.4,7.4z" fill="#000000" fill-rule="nonzero" stroke="none" stroke-width="1" stroke-linecap="butt" stroke-linejoin="miter"/><path d="M223.75056,261.66872l0.9,-32h2l1.1,25.5c2.44466,-1.03906 4.94466,-1.3224 7.5,-0.85c4.1,0.8 6.56667,3.26667 7.4,7.4z" fill="#000000" fill-rule="nonzero" stroke="none" stroke-width="1" stroke-linecap="butt" stroke-linejoin="miter"/><g fill-rule="nonzero"><g><path d="M286.04253,153.22425l26.91085,19.79648l-26.91085,19.79648l5.02645,33.05858l-33.05858,-5.02645l-19.79648,26.91085l-19.79648,-26.91085l-33.05858,5.02645l5.02645,-33.05858l-26.91085,-19.79648l26.91085,-19.79648l-5.02645,-33.05858l33.05858,5.02645l19.79648,-26.91085l19.79648,26.91085l33.05858,-5.02645z" fill="#7f7f7f" stroke="none" stroke-width="1" stroke-linecap="butt" stroke-linejoin="miter"/><path d="M312.9356,173.05008l-26.9107,19.79638l5.02642,33.0584l-33.0584,-5.02642l-19.79638,26.9107l-19.79638,-26.9107l-33.0584,5.02642l5.02642,-33.0584l-26.9107,-19.79638l26.9107,-19.79638l-5.02642,-33.0584l33.0584,5.02642l19.79638,-26.9107l19.79638,26.9107l33.0584,-5.02642l-5.02642,33.0584z" fill="#ffe800" stroke="#a99b00" stroke-width="2.5863" stroke-linecap="round" stroke-linejoin="round"/></g><path d="M288.99253,153.22425l26.91085,19.79648l-26.91085,19.79648l5.02645,33.05858l-33.05858,-5.02645l-19.79648,26.91085l-19.79648,-26.91085l-33.05858,5.02645l5.02645,-33.05858l-26.91085,-19.79648l26.91085,-19.79648l-5.02645,-33.05858l33.05858,5.02645l19.79648,-26.91085l19.79648,26.91085l33.05858,-5.02645z" fill="url(#color-1)" stroke="none" stroke-width="1" stroke-linecap="butt" stroke-linejoin="miter"/><path d="M315.9357,173.05008l-26.9107,19.79638l5.02642,33.0584l-33.0584,-5.02642l-19.79638,26.9107l-19.79638,-26.9107l-33.0584,5.02642l5.02642,-33.0584l-26.9107,-19.79638l26.9107,-19.79638l-5.02642,-33.0584l33.0584,5.02642l19.79638,-26.9107l19.79638,26.9107l33.0584,-5.02642l-5.02642,33.0584z" fill="none" stroke="#a99b00" stroke-width="2.5863" stroke-linecap="round" stroke-linejoin="round"/></g><g fill="#fafafa" fill-rule="evenodd" stroke-linecap="butt" stroke-linejoin="miter"><path d="M219.23857,135.39775c15.12583,0 30.2518,0 45.37753,0c4.52918,0.8358 7.50658,3.45603 8.93258,7.86067c0,1.5483 0,3.09664 0,4.64495c-1.13837,3.81814 -3.63949,6.25971 -7.50337,7.32472c-11.54019,0.52013 -23.09284,0.69878 -34.65843,0.53596c0,10.95731 0,21.91449 0,32.87191c6.90786,0 13.81574,0 20.7236,0c-0.05967,-6.07523 0,-12.14938 0.17865,-18.22247c0.97616,-4.19199 3.53695,-6.87177 7.68202,-8.03933c6.60261,-1.16831 11.12857,1.27328 13.57753,7.32472c0,10.7191 0,21.43821 0,32.15731c-1.80331,4.4788 -5.13802,6.86058 -10.00449,7.14606c-14.41111,0 -28.82248,0 -43.23371,0c-5.08142,-0.45807 -8.53534,-3.07852 -10.3618,-7.86067c0,-19.1754 0,-38.35055 0,-57.52584c1.53399,-4.51181 4.63062,-7.25114 9.28989,-8.21798z" stroke="#928600" stroke-width="8"/><path d="M219.23857,135.39775c15.12583,0 30.2518,0 45.37753,0c4.52918,0.8358 7.50658,3.45603 8.93258,7.86067c0,1.5483 0,3.09664 0,4.64495c-1.13837,3.81814 -3.63949,6.25971 -7.50337,7.32472c-11.54019,0.52013 -23.09284,0.69878 -34.65843,0.53596c0,10.95731 0,21.91449 0,32.87191c6.90786,0 13.81574,0 20.7236,0c-0.05967,-6.07523 0,-12.14938 0.17865,-18.22247c0.97616,-4.19199 3.53695,-6.87177 7.68202,-8.03933c6.60261,-1.16831 11.12857,1.27328 13.57753,7.32472c0,10.7191 0,21.43821 0,32.15731c-1.80331,4.4788 -5.13802,6.86058 -10.00449,7.14606c-14.41111,0 -28.82248,0 -43.23371,0c-5.08142,-0.45807 -8.53534,-3.07852 -10.3618,-7.86067c0,-19.1754 0,-38.35055 0,-57.52584c1.53399,-4.51181 4.63062,-7.25114 9.28989,-8.21798z" stroke="#a99b00" stroke-width="4.5"/><path d="M219.23857,135.39775c15.12583,0 30.2518,0 45.37753,0c4.52918,0.8358 7.50658,3.45603 8.93258,7.86067c0,1.5483 0,3.09664 0,4.64495c-1.13837,3.81814 -3.63949,6.25971 -7.50337,7.32472c-11.54019,0.52013 -23.09284,0.69878 -34.65843,0.53596c0,10.95731 0,21.91449 0,32.87191c6.90786,0 13.81574,0 20.7236,0c-0.05967,-6.07523 0,-12.14938 0.17865,-18.22247c0.97616,-4.19199 3.53695,-6.87177 7.68202,-8.03933c6.60261,-1.16831 11.12857,1.27328 13.57753,7.32472c0,10.7191 0,21.43821 0,32.15731c-1.80331,4.4788 -5.13802,6.86058 -10.00449,7.14606c-14.41111,0 -28.82248,0 -43.23371,0c-5.08142,-0.45807 -8.53534,-3.07852 -10.3618,-7.86067c0,-19.1754 0,-38.35055 0,-57.52584c1.53399,-4.51181 4.63062,-7.25114 9.28989,-8.21798z" stroke="none" stroke-width="1"/></g><path d="M209.24729,197.61872c16.11094,-2.11771 33.41094,-3.34271 51.9,-3.675" fill="none" fill-rule="nonzero" stroke="#000000" stroke-width="3" stroke-linecap="round" stroke-linejoin="round"/><g fill="#000000" fill-rule="nonzero" stroke="none" stroke-width="1" stroke-linecap="butt" stroke-linejoin="miter"><path d="M273.04729,164.16872c-0.00052,2.1 -0.35052,3.88333 -1.05,5.35c-0.6401,1.5 -1.4401,2.25 -2.4,2.25c-0.96406,0 -1.7974,-0.75 -2.5,-2.25c-0.63698,-1.46667 -0.95365,-3.25 -0.95,-5.35c-0.00365,-2.1 0.31302,-3.9 0.95,-5.4c0.7026,-1.46667 1.53594,-2.2 2.5,-2.2c0.9599,0 1.7599,0.73333 2.4,2.2c0.69948,1.5 1.04948,3.3 1.05,5.4z"/><path d="M241.54729,164.16872c-0.00052,2.1 -0.35052,3.88333 -1.05,5.35c-0.6401,1.5 -1.4401,2.25 -2.4,2.25c-0.96406,0 -1.7974,-0.75 -2.5,-2.25c-0.63698,-1.46667 -0.95365,-3.25 -0.95,-5.35c-0.00365,-2.1 0.31302,-3.9 0.95,-5.4c0.7026,-1.46667 1.53594,-2.2 2.5,-2.2c0.9599,0 1.7599,0.73333 2.4,2.2c0.69948,1.5 1.04948,3.3 1.05,5.4z"/><path d="M228.26333,152.79756c-0.2,0.4 -0.5,0.7 -0.9,0.8c-0.4,0.1 -0.7,0.1 -1.1,-0.1c-0.4,-0.2 -0.6,-0.5 -0.8,-0.9c-0.1,-0.4 -0.1,-0.7 0.1,-1.1c2.9,-5.6 7.3,-7.8 13.5,-6.6c1.3,0.4 1.9,0.8 1.8,1.3c-0.1,0.5 -0.7,0.7 -2,0.4c-4.6,-0.9 -8.1,1.2 -10.6,6.2z"/><path d="M267.42058,146.21467c-1.3,0.3 -1.9,0.1 -2,-0.4c-0.1,-0.5 0.5,-0.9 1.8,-1.3c6.2,-1.2 10.6,1 13.5,6.6c0.2,0.4 0.2,0.7 0.1,1.1c-0.2,0.4 -0.4,0.7 -0.8,0.9c-0.4,0.2 -0.7,0.2 -1.1,0.1c-0.4,-0.1 -0.7,-0.4 -0.9,-0.8c-2.5,-5 -6,-7.1 -10.6,-6.2z"/></g><path d="M184.85431,217.14222c0.85034,1.41386 1.07426,2.92943 0.67175,4.54671c-0.40251,1.61728 -1.3107,2.8511 -2.72454,3.70142c-1.41386,0.85034 -2.92942,1.07426 -4.5467,0.67175c-1.61728,-0.40251 -2.8511,-1.3107 -3.70143,-2.72454c-0.85034,-1.41386 -1.07426,-2.92942 -0.67175,-4.5467c0.40251,-1.61728 1.31068,-2.8511 2.72454,-3.70142c0.85367,-0.51343 1.73455,-0.80944 2.64262,-0.88802l6.97138,-24.28443l1.94074,0.48301l-5.32175,24.69499c0.82184,0.49758 1.49355,1.17999 2.01514,2.04723z" fill="#000000" fill-rule="nonzero" stroke="none" stroke-width="1" stroke-linecap="butt" stroke-linejoin="miter"/></g></g></svg>