<svg version="1.1" xmlns="http://www.w3.org/2000/svg" xmlns:xlink="http://www.w3.org/1999/xlink" width="145.28309" height="145.26996" viewBox="0,0,145.28309,145.26996"><defs><radialGradient cx="239.91189" cy="180.08155" r="72.55343" gradientUnits="userSpaceOnUse" id="color-1"><stop offset="0" stop-color="#007c7d"/><stop offset="1" stop-color="#007c7d" stop-opacity="0"/></radialGradient><radialGradient cx="240.08812" cy="179.91845" r="72.55343" gradientUnits="userSpaceOnUse" id="color-2"><stop offset="0" stop-color="#007c7d"/><stop offset="1" stop-color="#007c7d" stop-opacity="0"/></radialGradient><linearGradient x1="186.864" y1="227.80367" x2="206.5791" y2="227.80367" gradientUnits="userSpaceOnUse" id="color-3"><stop offset="0" stop-color="#000d0d"/><stop offset="1" stop-color="#003536"/></linearGradient><linearGradient x1="269.53066" y1="229.13698" x2="289.24576" y2="229.13698" gradientUnits="userSpaceOnUse" id="color-4"><stop offset="0" stop-color="#000d0d"/><stop offset="1" stop-color="#003536"/></linearGradient><linearGradient x1="267.11071" y1="130.51502" x2="297.08076" y2="130.51502" gradientUnits="userSpaceOnUse" id="color-5"><stop offset="0" stop-color="#000d0d"/><stop offset="1" stop-color="#003536"/></linearGradient><linearGradient x1="271.72627" y1="134.53246" x2="285.0596" y2="134.53246" gradientUnits="userSpaceOnUse" id="color-6"><stop offset="0" stop-color="#000d0d"/><stop offset="1" stop-color="#003536"/></linearGradient><linearGradient x1="183.44405" y1="129.18169" x2="213.41409" y2="129.18169" gradientUnits="userSpaceOnUse" id="color-7"><stop offset="0" stop-color="#000d0d"/><stop offset="1" stop-color="#003536"/></linearGradient><linearGradient x1="195.46521" y1="133.19913" x2="208.79854" y2="133.19913" gradientUnits="userSpaceOnUse" id="color-8"><stop offset="0" stop-color="#000d0d"/><stop offset="1" stop-color="#003536"/></linearGradient><radialGradient cx="239.78154" cy="181.54317" r="59.09009" gradientUnits="userSpaceOnUse" id="color-9"><stop offset="0" stop-color="#002116"/><stop offset="1" stop-color="#004754"/></radialGradient><radialGradient cx="222.53554" cy="175.30446" r="7.58334" gradientUnits="userSpaceOnUse" id="color-10"><stop offset="0" stop-color="#00ccff"/><stop offset="1" stop-color="#00ccff" stop-opacity="0"/></radialGradient><radialGradient cx="222.70221" cy="175.80446" r="4.41667" gradientUnits="userSpaceOnUse" id="color-11"><stop offset="0" stop-color="#ffffff"/><stop offset="1" stop-color="#ffffff" stop-opacity="0"/></radialGradient><radialGradient cx="252.50619" cy="174.80446" r="7.58334" gradientUnits="userSpaceOnUse" id="color-12"><stop offset="0" stop-color="#00ccff"/><stop offset="1" stop-color="#00ccff" stop-opacity="0"/></radialGradient><radialGradient cx="252.33952" cy="175.30446" r="4.41667" gradientUnits="userSpaceOnUse" id="color-13"><stop offset="0" stop-color="#ffffff"/><stop offset="1" stop-color="#ffffff" stop-opacity="0"/></radialGradient><radialGradient cx="179.5363" cy="212.19496" r="8.83398" gradientUnits="userSpaceOnUse" id="color-14"><stop offset="0" stop-color="#002116"/><stop offset="1" stop-color="#004754"/></radialGradient><radialGradient cx="299.96702" cy="216.0171" r="8.83399" gradientUnits="userSpaceOnUse" id="color-15"><stop offset="0" stop-color="#002116"/><stop offset="1" stop-color="#004754"/></radialGradient></defs><g transform="translate(-167.35846,-107.36502)"><g data-paper-data="{&quot;isPaintingLayer&quot;:true}" fill-rule="nonzero" stroke-linecap="butt" stroke-linejoin="miter" stroke-miterlimit="10" stroke-dasharray="" stroke-dashoffset="0" style="mix-blend-mode: normal"><path d="M167.35846,180.08155c0,-40.07015 32.48327,-72.55343 72.55343,-72.55343c40.07015,0 72.55343,32.48327 72.55343,72.55343c0,40.07016 -32.48328,72.55343 -72.55343,72.55343c-40.07015,0 -72.55343,-32.48327 -72.55343,-72.55343z" fill="url(#color-1)" stroke="none" stroke-width="NaN"/><path d="M167.53469,179.91845c0,-40.07015 32.48327,-72.55343 72.55343,-72.55343c40.07016,0 72.55343,32.48327 72.55343,72.55343c0,40.07016 -32.48327,72.55343 -72.55343,72.55343c-40.07015,0 -72.55343,-32.48327 -72.55343,-72.55343z" fill="url(#color-2)" stroke="none" stroke-width="NaN"/><path d="M192.81556,221.92377c1.54904,-3.64233 5.75747,-5.33928 9.3998,-3.79024c3.64233,1.54904 5.33928,5.75747 3.79024,9.3998c-1.54904,3.64233 -19.14161,10.51396 -19.14161,10.51396c0,0 4.40253,-12.48119 5.95156,-16.12352z" fill="url(#color-3)" stroke="#000000" stroke-width="3"/><path d="M289.24576,239.38061c0,0 -17.59258,-6.87163 -19.14161,-10.51396c-1.54904,-3.64233 0.14792,-7.85077 3.79025,-9.3998c3.64233,-1.54904 7.85077,0.14792 9.3998,3.79024c1.54904,3.64233 5.95156,16.12351 5.95156,16.12351z" data-paper-data="{&quot;index&quot;:null}" fill="url(#color-4)" stroke="#000000" stroke-width="3"/><path d="M267.11071,138.93535c0,0 9.28916,0.54836 13.36092,-5.62948c3.62928,-5.50648 7.48944,-20.43346 7.48944,-20.43346c0,0 9.46716,8.14285 9.10983,19.43138c-0.28427,8.98031 -6.30304,15.85383 -6.30304,15.85383z" data-paper-data="{&quot;index&quot;:null}" fill="url(#color-5)" stroke="#000000" stroke-width="3"/><path d="M271.72627,140.36579c0,0 2.01452,-8.17187 5.0254,-11.36709c2.0891,-2.21701 8.30793,-2.63291 8.30793,-2.63291c0,0 -1.61167,2.80701 -3.33334,7.33334c-2.13081,5.60198 0,9 0,9z" data-paper-data="{&quot;index&quot;:null}" fill="url(#color-6)" stroke="#000000" stroke-width="3"/><path d="M189.75697,146.82429c0,0 -6.01878,-6.87351 -6.30305,-15.85382c-0.35733,-11.28854 9.10982,-19.43138 9.10982,-19.43138c0,0 3.86016,14.92698 7.48944,20.43346c4.07176,6.17785 13.36091,5.62948 13.36091,5.62948z" fill="url(#color-7)" stroke="#000000" stroke-width="3"/><path d="M198.79854,141.36579c0,0 2.13081,-3.39803 0,-9c-1.72167,-4.52633 -3.33333,-7.33333 -3.33333,-7.33333c0,0 6.21883,0.4159 8.30793,2.63291c3.01088,3.19522 5.0254,11.36709 5.0254,11.36709z" fill="url(#color-8)" stroke="#000000" stroke-width="3"/><path d="M180.69145,181.54317c0,-32.63456 26.45554,-59.09009 59.09009,-59.09009c32.63456,0 59.09009,26.45554 59.09009,59.09009c0,32.63456 -26.45554,59.09009 -59.09009,59.09009c-32.63456,0 -59.09009,-26.45554 -59.09009,-59.09009z" fill="url(#color-9)" stroke="#000000" stroke-width="3"/><path d="M204.58833,159.66526c0,0 19.07743,5.04467 24.48555,9.53758c5.40813,4.49291 -4.68536,19.74093 -10.09349,15.24803c-5.40813,-4.49291 -14.39207,-24.78561 -14.39207,-24.78561z" fill="#000000" stroke="none" stroke-width="0"/><path d="M214.95221,175.30446c0,-4.18816 3.39517,-7.58333 7.58333,-7.58333c4.18816,0 7.58334,3.39517 7.58334,7.58333c0,4.18816 -3.39517,7.58334 -7.58334,7.58334c-4.18816,0 -7.58333,-3.39517 -7.58333,-7.58334z" fill="url(#color-10)" stroke="none" stroke-width="0"/><path d="M218.28554,175.80446c0,-2.43926 1.97741,-4.41666 4.41667,-4.41666c2.43926,0 4.41667,1.97741 4.41667,4.41666c0,2.43926 -1.97741,4.41667 -4.41667,4.41667c-2.43926,0 -4.41667,-1.97741 -4.41667,-4.41667z" fill="url(#color-11)" stroke="none" stroke-width="0"/><path d="M256.06133,183.95086c-5.40813,4.49291 -15.50161,-10.75512 -10.09348,-15.24803c5.40813,-4.49291 24.48555,-9.53758 24.48555,-9.53758c0,0 -8.98394,20.2927 -14.39207,24.78561z" data-paper-data="{&quot;index&quot;:null}" fill="#000000" stroke="none" stroke-width="0"/><path d="M252.50619,182.3878c-4.18816,0 -7.58334,-3.39517 -7.58334,-7.58334c0,-4.18816 3.39517,-7.58333 7.58334,-7.58333c4.18816,0 7.58333,3.39517 7.58333,7.58333c0,4.18816 -3.39517,7.58334 -7.58333,7.58334z" data-paper-data="{&quot;index&quot;:null}" fill="url(#color-12)" stroke="none" stroke-width="0"/><path d="M252.33952,179.72113c-2.43926,0 -4.41667,-1.97741 -4.41667,-4.41667c0,-2.43926 1.97741,-4.41666 4.41667,-4.41666c2.43926,0 4.41667,1.97741 4.41667,4.41666c0,2.43926 -1.97741,4.41667 -4.41667,4.41667z" data-paper-data="{&quot;index&quot;:null}" fill="url(#color-13)" stroke="none" stroke-width="0"/><path d="M207.58724,206.59486l-10.22456,-16.73111l10.81269,8.91351l4.66887,-3.66569l7.13227,9.06515l6.80853,-4.87759l4.95604,3.52624l6.81585,-2.26827l5.89401,2.64357l4.64638,-3.65147l7.43152,5.67074l8.68487,-9.52145l4.65042,3.77014l10.5344,-9.60489l-9.91473,16.73111l-5.27234,-4.27135l-7.42961,13.08508l-8.97874,-8.90747l-4.65202,3.77098l-5.88915,-2.45936l-7.12429,2.50443l-4.02113,-3.61433l-6.51457,9.05159l-7.73947,-12.94397z" fill="#000000" stroke="none" stroke-width="0"/><path d="M170.70231,212.19496c0,-4.87887 3.95511,-8.83398 8.83398,-8.83398c4.87887,0 8.83398,3.95511 8.83398,8.83398c0,4.87887 -3.95511,8.83398 -8.83398,8.83398c-4.87887,0 -8.83398,-3.95511 -8.83398,-8.83398z" fill="url(#color-14)" stroke="#000000" stroke-width="3"/><path d="M291.13304,216.0171c0,-4.87887 3.95511,-8.83398 8.83398,-8.83398c4.87887,0 8.83399,3.95511 8.83399,8.83398c0,4.87887 -3.95511,8.83399 -8.83399,8.83399c-4.87887,0 -8.83398,-3.95511 -8.83398,-8.83399z" fill="url(#color-15)" stroke="#000000" stroke-width="3"/></g></g></svg>